STARTFONT 2.1
FONT -FontForge-Host Grotesk Light-Light-R-Normal--24-240-75-75-P-122-ISO10646-1
SIZE 24 75 75
FONTBOUNDINGBOX 32 31 -4 -8
COMMENT "Generated by fontforge, http://fontforge.sourceforge.net"
COMMENT "Copyright 2023 The Host Grotesk Project Authors (https://github.com/Element-Type/HostGrotesk)"
STARTPROPERTIES 40
FOUNDRY "FontForge"
FAMILY_NAME "Host Grotesk Light"
WEIGHT_NAME "Light"
SLANT "R"
SETWIDTH_NAME "Normal"
ADD_STYLE_NAME ""
PIXEL_SIZE 24
POINT_SIZE 240
RESOLUTION_X 75
RESOLUTION_Y 75
SPACING "P"
AVERAGE_WIDTH 122
CHARSET_REGISTRY "ISO10646"
CHARSET_ENCODING "1"
FONTNAME_REGISTRY ""
CHARSET_COLLECTIONS "ISO8859-2 ISO8859-9 ISO8859-4 ISO10646-1"
FONT_NAME "HostGrotesk-Light"
FACE_NAME "Host Grotesk Light"
COPYRIGHT "Copyright 2023 The Host Grotesk Project Authors (https://github.com/Element-Type/HostGrotesk)"
FONT_VERSION "1.003"
FONT_ASCENT 19
FONT_DESCENT 5
UNDERLINE_POSITION -3
UNDERLINE_THICKNESS 2
X_HEIGHT 11
CAP_HEIGHT 16
RAW_ASCENT 800
RAW_DESCENT 200
NORM_SPACE 7
RELATIVE_WEIGHT 30
RELATIVE_SETWIDTH 50
SUPERSCRIPT_X 0
SUPERSCRIPT_Y 8
SUPERSCRIPT_SIZE 14
SUBSCRIPT_X 0
SUBSCRIPT_Y 1
SUBSCRIPT_SIZE 14
FIGURE_WIDTH 16
AVG_LOWERCASE_WIDTH 124
AVG_UPPERCASE_WIDTH 151
ENDPROPERTIES
CHARS 448
STARTCHAR CR
ENCODING 13
SWIDTH 600 0
DWIDTH 14 0
BBX 1 1 0 0
BITMAP
00
ENDCHAR
STARTCHAR space
ENCODING 32
SWIDTH 307 0
DWIDTH 7 0
BBX 1 1 0 0
BITMAP
00
ENDCHAR
STARTCHAR exclam
ENCODING 33
SWIDTH 276 0
DWIDTH 7 0
BBX 3 17 2 0
BITMAP
C0
C0
C0
C0
C0
C0
C0
40
40
40
40
40
40
00
00
E0
E0
ENDCHAR
STARTCHAR quotedbl
ENCODING 34
SWIDTH 347 0
DWIDTH 8 0
BBX 5 5 2 13
BITMAP
98
90
90
90
90
ENDCHAR
STARTCHAR numbersign
ENCODING 35
SWIDTH 800 0
DWIDTH 19 0
BBX 17 17 1 0
BITMAP
030600
020400
020400
060C00
060C00
7FFF80
7FFF80
041800
0C1800
0C1800
0C1000
FFFF00
183000
183000
183000
102000
106000
ENDCHAR
STARTCHAR dollar
ENCODING 36
SWIDTH 650 0
DWIDTH 16 0
BBX 13 21 1 -2
BITMAP
0200
0200
0FC0
3AE0
6230
6210
6218
6200
7200
3E00
0FE0
02F0
0218
0218
C218
4218
6210
3270
1FC0
0200
0200
ENDCHAR
STARTCHAR percent
ENCODING 37
SWIDTH 859 0
DWIDTH 21 0
BBX 17 17 2 0
BITMAP
780C00
EC0800
861800
823000
823000
C66000
FC4000
38C000
018000
018400
031F00
023180
062180
042180
0C2180
183300
301F00
ENDCHAR
STARTCHAR ampersand
ENCODING 38
SWIDTH 707 0
DWIDTH 17 0
BBX 15 17 1 0
BITMAP
7FE0
7FE0
3000
1800
0C00
0C00
0600
3F0C
718C
6188
C0D8
C078
C030
C030
6078
39CC
1F8E
ENDCHAR
STARTCHAR quotesingle
ENCODING 39
SWIDTH 200 0
DWIDTH 5 0
BBX 1 5 2 13
BITMAP
80
80
80
80
80
ENDCHAR
STARTCHAR parenleft
ENCODING 40
SWIDTH 385 0
DWIDTH 9 0
BBX 6 22 2 -3
BITMAP
0C
18
30
20
60
40
C0
C0
C0
C0
C0
C0
C0
C0
C0
C0
40
60
20
30
18
0C
ENDCHAR
STARTCHAR parenright
ENCODING 41
SWIDTH 385 0
DWIDTH 9 0
BBX 6 22 1 -3
BITMAP
C0
60
30
18
18
08
0C
0C
04
04
04
04
04
04
0C
0C
08
18
18
30
60
C0
ENDCHAR
STARTCHAR asterisk
ENCODING 42
SWIDTH 462 0
DWIDTH 11 0
BBX 9 8 1 9
BITMAP
2300
3600
1400
FF80
FF80
1400
3600
2300
ENDCHAR
STARTCHAR plus
ENCODING 43
SWIDTH 590 0
DWIDTH 14 0
BBX 11 11 2 3
BITMAP
0C00
0C00
0C00
0C00
0C00
FFE0
0C00
0C00
0C00
0C00
0C00
ENDCHAR
STARTCHAR comma
ENCODING 44
SWIDTH 222 0
DWIDTH 5 0
BBX 3 6 1 -4
BITMAP
E0
E0
60
60
E0
80
ENDCHAR
STARTCHAR hyphen
ENCODING 45
SWIDTH 490 0
DWIDTH 12 0
BBX 11 1 0 8
BITMAP
FFE0
ENDCHAR
STARTCHAR period
ENCODING 46
SWIDTH 224 0
DWIDTH 5 0
BBX 3 2 1 0
BITMAP
E0
E0
ENDCHAR
STARTCHAR slash
ENCODING 47
SWIDTH 470 0
DWIDTH 11 0
BBX 9 20 1 -2
BITMAP
0180
0180
0100
0300
0300
0200
0600
0400
0C00
0C00
0800
1800
1800
3000
3000
2000
6000
6000
C000
C000
ENDCHAR
STARTCHAR zero
ENCODING 48
SWIDTH 650 0
DWIDTH 16 0
BBX 13 17 1 0
BITMAP
0FC0
1CE0
3030
6030
6018
4018
C018
C008
C008
C008
C018
4018
6018
6010
3030
3860
0FC0
ENDCHAR
STARTCHAR one
ENCODING 49
SWIDTH 650 0
DWIDTH 16 0
BBX 12 17 2 0
BITMAP
0200
0600
7E00
7E00
0200
0200
0200
0200
0200
0200
0200
0200
0200
0200
0200
0200
FFF0
ENDCHAR
STARTCHAR two
ENCODING 50
SWIDTH 650 0
DWIDTH 16 0
BBX 12 17 2 0
BITMAP
1F80
39C0
6060
4020
C020
0020
0060
00C0
0380
0E00
3800
7000
6000
C000
C000
C000
FFF0
ENDCHAR
STARTCHAR three
ENCODING 51
SWIDTH 650 0
DWIDTH 16 0
BBX 13 17 1 0
BITMAP
0FC0
3CE0
3030
6030
6030
0030
0060
0FC0
0FE0
0030
0010
0018
C018
C018
6030
3870
1FC0
ENDCHAR
STARTCHAR four
ENCODING 52
SWIDTH 650 0
DWIDTH 16 0
BBX 13 17 1 0
BITMAP
00C0
01C0
0140
0340
0640
0C40
0840
1840
3040
2040
6040
C040
FFF8
0040
0040
0040
0040
ENDCHAR
STARTCHAR five
ENCODING 53
SWIDTH 650 0
DWIDTH 16 0
BBX 12 17 2 0
BITMAP
7FE0
7FE0
6000
6000
6000
7F00
7FC0
E0E0
C060
0030
0030
0030
0030
C030
C060
70C0
3F80
ENDCHAR
STARTCHAR six
ENCODING 54
SWIDTH 650 0
DWIDTH 16 0
BBX 12 17 2 0
BITMAP
1F80
39C0
6060
4030
C030
C000
8F00
BFC0
E060
C030
C030
C030
C030
C030
6060
30C0
1F80
ENDCHAR
STARTCHAR seven
ENCODING 55
SWIDTH 650 0
DWIDTH 16 0
BBX 12 17 2 0
BITMAP
FFF0
FFF0
0030
0060
0060
00C0
00C0
0180
0180
0300
0300
0600
0600
0C00
0C00
1800
1800
ENDCHAR
STARTCHAR eight
ENCODING 56
SWIDTH 650 0
DWIDTH 16 0
BBX 12 17 2 0
BITMAP
1F80
79C0
6060
C020
C020
C060
6060
3FC0
3F80
60E0
C020
C030
8030
C030
C060
70E0
3F80
ENDCHAR
STARTCHAR nine
ENCODING 57
SWIDTH 650 0
DWIDTH 16 0
BBX 12 17 2 0
BITMAP
1F00
7BC0
6060
C060
8030
8030
8030
C070
60F0
7FB0
1F30
0030
0020
C060
6060
71C0
3F80
ENDCHAR
STARTCHAR colon
ENCODING 58
SWIDTH 224 0
DWIDTH 5 0
BBX 3 11 1 0
BITMAP
E0
E0
00
00
00
00
00
00
00
E0
E0
ENDCHAR
STARTCHAR semicolon
ENCODING 59
SWIDTH 222 0
DWIDTH 5 0
BBX 3 15 1 -4
BITMAP
E0
E0
00
00
00
00
00
00
00
E0
E0
60
60
E0
80
ENDCHAR
STARTCHAR less
ENCODING 60
SWIDTH 590 0
DWIDTH 14 0
BBX 8 11 3 3
BITMAP
01
03
0E
38
E0
C0
E0
38
0E
07
01
ENDCHAR
STARTCHAR equal
ENCODING 61
SWIDTH 590 0
DWIDTH 14 0
BBX 11 5 2 6
BITMAP
FFE0
0000
0000
0000
FFE0
ENDCHAR
STARTCHAR greater
ENCODING 62
SWIDTH 590 0
DWIDTH 14 0
BBX 8 11 3 3
BITMAP
80
E0
70
1C
07
01
07
1C
38
E0
80
ENDCHAR
STARTCHAR question
ENCODING 63
SWIDTH 500 0
DWIDTH 12 0
BBX 10 17 1 0
BITMAP
3F00
7380
C0C0
C0C0
8040
00C0
00C0
0180
0700
0E00
1800
1800
1800
0000
0000
1C00
1C00
ENDCHAR
STARTCHAR at
ENCODING 64
SWIDTH 894 0
DWIDTH 21 0
BBX 18 20 2 -5
BITMAP
03F800
1FFE00
300700
600180
400180
C1C880
C778C0
CC18C0
C808C0
C808C0
C808C0
C80880
CC1880
C63D80
C3E700
400000
600000
700000
380000
0FE000
ENDCHAR
STARTCHAR A
ENCODING 65
SWIDTH 674 0
DWIDTH 16 0
BBX 14 17 1 0
BITMAP
0300
0300
0780
0780
04C0
0CC0
0C40
0860
1860
1820
3030
3FF0
3FF0
6018
6018
C00C
C00C
ENDCHAR
STARTCHAR B
ENCODING 66
SWIDTH 597 0
DWIDTH 14 0
BBX 11 17 2 0
BITMAP
FF00
FFC0
C0C0
C060
C060
C060
C040
C1C0
FF80
C0C0
C060
C060
C060
C060
C060
C3C0
FF80
ENDCHAR
STARTCHAR C
ENCODING 67
SWIDTH 705 0
DWIDTH 17 0
BBX 15 17 1 0
BITMAP
07E0
1E78
301C
600E
6006
C000
C000
C000
C000
C000
C000
C000
4006
600E
300C
1C38
0FF0
ENDCHAR
STARTCHAR D
ENCODING 68
SWIDTH 685 0
DWIDTH 16 0
BBX 14 17 2 0
BITMAP
FF00
FFC0
C060
C030
C018
C018
C00C
C00C
C00C
C00C
C00C
C018
C018
C030
C070
C3E0
FF00
ENDCHAR
STARTCHAR E
ENCODING 69
SWIDTH 539 0
DWIDTH 13 0
BBX 10 17 2 0
BITMAP
FFC0
FFC0
8000
8000
8000
8000
8000
8000
FF80
8000
8000
8000
8000
8000
8000
8000
FFC0
ENDCHAR
STARTCHAR F
ENCODING 70
SWIDTH 523 0
DWIDTH 13 0
BBX 10 17 2 0
BITMAP
FFC0
FFC0
C000
C000
C000
C000
C000
C000
FF80
C000
C000
C000
C000
C000
C000
C000
C000
ENDCHAR
STARTCHAR G
ENCODING 71
SWIDTH 733 0
DWIDTH 18 0
BBX 16 17 1 0
BITMAP
07E0
1FF8
301C
600E
6006
C000
C000
C000
C07F
C07F
C003
C003
4006
6006
300C
1C3C
0FF0
ENDCHAR
STARTCHAR H
ENCODING 72
SWIDTH 675 0
DWIDTH 16 0
BBX 12 17 2 0
BITMAP
C030
C030
C030
C030
C030
C030
C030
C030
FFF0
C030
C030
C030
C030
C030
C030
C030
C030
ENDCHAR
STARTCHAR I
ENCODING 73
SWIDTH 234 0
DWIDTH 6 0
BBX 2 17 2 0
BITMAP
C0
C0
C0
C0
C0
C0
C0
C0
C0
C0
C0
C0
C0
C0
C0
C0
C0
ENDCHAR
STARTCHAR J
ENCODING 74
SWIDTH 401 0
DWIDTH 10 0
BBX 9 17 -1 0
BITMAP
0180
0180
0180
0180
0180
0180
0180
0180
0180
0180
0180
0180
0180
0180
C180
FF00
7E00
ENDCHAR
STARTCHAR K
ENCODING 75
SWIDTH 630 0
DWIDTH 15 0
BBX 12 17 2 0
BITMAP
C060
C0E0
C1C0
C380
C700
CE00
CC00
DC00
FC00
FC00
CE00
C700
C380
C1C0
C0E0
C070
C030
ENDCHAR
STARTCHAR L
ENCODING 76
SWIDTH 521 0
DWIDTH 13 0
BBX 10 17 2 0
BITMAP
C000
C000
C000
C000
C000
C000
C000
C000
C000
C000
C000
C000
C000
C000
C000
C000
FFC0
ENDCHAR
STARTCHAR M
ENCODING 77
SWIDTH 855 0
DWIDTH 21 0
BBX 17 17 2 0
BITMAP
C00180
C00380
E00380
E00780
F00780
F00D80
D80D80
D81980
CC1980
CC1180
C63180
C62180
C36180
C36180
C1C180
C1C180
C1C180
ENDCHAR
STARTCHAR N
ENCODING 78
SWIDTH 691 0
DWIDTH 17 0
BBX 13 17 2 0
BITMAP
C018
E018
E018
F018
D818
D818
CC18
C618
C618
C318
C198
C198
C0D8
C058
C078
C038
C018
ENDCHAR
STARTCHAR O
ENCODING 79
SWIDTH 760 0
DWIDTH 18 0
BBX 16 17 1 0
BITMAP
07E0
1E78
300C
6006
6002
C003
C003
C003
C003
C003
C003
C003
4002
6006
300C
1C38
0FF0
ENDCHAR
STARTCHAR P
ENCODING 80
SWIDTH 589 0
DWIDTH 14 0
BBX 11 17 2 0
BITMAP
FE00
FF80
C0C0
C060
C060
C060
C060
C0C0
FF80
FE00
C000
C000
C000
C000
C000
C000
C000
ENDCHAR
STARTCHAR Q
ENCODING 81
SWIDTH 789 0
DWIDTH 19 0
BBX 18 17 1 0
BITMAP
07E000
1E7800
300C00
600600
600200
C00300
C00300
C00300
C00300
C00300
C02300
C03300
401A00
600E00
300E00
1E7B00
0FF1C0
ENDCHAR
STARTCHAR R
ENCODING 82
SWIDTH 640 0
DWIDTH 15 0
BBX 12 17 2 0
BITMAP
FF80
FFC0
C060
C030
C030
C030
C030
C060
C1E0
FFC0
C060
C030
C030
C030
C030
C030
C030
ENDCHAR
STARTCHAR S
ENCODING 83
SWIDTH 607 0
DWIDTH 15 0
BBX 12 17 1 0
BITMAP
1F80
3DE0
6060
4030
4030
4000
6000
3C00
1FC0
00E0
0030
0010
C010
C010
6030
7860
1FC0
ENDCHAR
STARTCHAR T
ENCODING 84
SWIDTH 587 0
DWIDTH 14 0
BBX 12 17 1 0
BITMAP
FFF0
FFF0
0600
0600
0600
0600
0600
0600
0600
0600
0600
0600
0600
0600
0600
0600
0600
ENDCHAR
STARTCHAR U
ENCODING 85
SWIDTH 634 0
DWIDTH 15 0
BBX 12 17 2 0
BITMAP
C030
C030
C030
C030
C030
C030
C030
C030
C030
C030
C030
C030
C030
C030
E070
79E0
3F80
ENDCHAR
STARTCHAR V
ENCODING 86
SWIDTH 710 0
DWIDTH 17 0
BBX 15 17 1 0
BITMAP
C006
E006
600C
600C
3018
3018
1010
1830
1830
0820
0C60
0C60
06C0
06C0
0280
0380
0380
ENDCHAR
STARTCHAR W
ENCODING 87
SWIDTH 1012 0
DWIDTH 24 0
BBX 22 17 1 0
BITMAP
C0300C
C0300C
603808
607818
606818
304C10
30CC10
30C430
108430
188620
198660
190260
090360
0F0340
0F01C0
0601C0
060180
ENDCHAR
STARTCHAR X
ENCODING 88
SWIDTH 637 0
DWIDTH 15 0
BBX 12 17 2 0
BITMAP
C030
C060
60C0
20C0
3180
1900
1B00
0E00
0600
0E00
1B00
1B00
3180
30C0
60C0
C060
C030
ENDCHAR
STARTCHAR Y
ENCODING 89
SWIDTH 642 0
DWIDTH 15 0
BBX 13 17 1 0
BITMAP
C018
6010
6030
3020
1060
1840
08C0
0D80
0580
0700
0300
0300
0300
0300
0300
0300
0300
ENDCHAR
STARTCHAR Z
ENCODING 90
SWIDTH 542 0
DWIDTH 13 0
BBX 11 17 1 0
BITMAP
FFE0
FFE0
00C0
0080
0180
0300
0300
0600
0400
0C00
1800
1800
3000
2000
6000
FFE0
FFE0
ENDCHAR
STARTCHAR bracketleft
ENCODING 91
SWIDTH 385 0
DWIDTH 9 0
BBX 5 22 2 -3
BITMAP
F8
C0
C0
C0
C0
C0
C0
C0
C0
C0
C0
C0
C0
C0
C0
C0
C0
C0
C0
C0
C0
F8
ENDCHAR
STARTCHAR backslash
ENCODING 92
SWIDTH 470 0
DWIDTH 11 0
BBX 9 20 1 -2
BITMAP
C000
4000
6000
6000
2000
3000
3000
1800
1800
0800
0C00
0C00
0400
0600
0200
0300
0300
0100
0180
0080
ENDCHAR
STARTCHAR bracketright
ENCODING 93
SWIDTH 385 0
DWIDTH 9 0
BBX 5 22 2 -3
BITMAP
F8
18
18
18
18
18
18
18
18
18
18
18
18
18
18
18
18
18
18
18
18
F8
ENDCHAR
STARTCHAR asciicircum
ENCODING 94
SWIDTH 590 0
DWIDTH 14 0
BBX 10 6 2 11
BITMAP
0C00
1E00
1200
3300
6180
E0C0
ENDCHAR
STARTCHAR underscore
ENCODING 95
SWIDTH 671 0
DWIDTH 16 0
BBX 12 1 2 -2
BITMAP
FFF0
ENDCHAR
STARTCHAR grave
ENCODING 96
SWIDTH 400 0
DWIDTH 10 0
BBX 5 5 2 13
BITMAP
C0
60
20
10
18
ENDCHAR
STARTCHAR a
ENCODING 97
SWIDTH 555 0
DWIDTH 13 0
BBX 11 12 1 0
BITMAP
3F00
7180
C0C0
C0C0
00C0
3FC0
60C0
C0C0
C0C0
C1C0
E360
7E60
ENDCHAR
STARTCHAR b
ENCODING 98
SWIDTH 602 0
DWIDTH 14 0
BBX 12 17 2 0
BITMAP
8000
8000
8000
8000
8000
9F80
B1C0
E060
C060
8020
8030
8030
8020
C060
C060
B1C0
9F80
ENDCHAR
STARTCHAR c
ENCODING 99
SWIDTH 548 0
DWIDTH 13 0
BBX 11 12 1 0
BITMAP
1F80
31C0
6060
C060
C000
C000
C000
C000
C060
6060
71C0
1F80
ENDCHAR
STARTCHAR d
ENCODING 100
SWIDTH 602 0
DWIDTH 14 0
BBX 12 17 1 0
BITMAP
0030
0030
0030
0030
0030
1FB0
31F0
6070
C030
C030
C030
C030
C030
C030
6070
71F0
1FB0
ENDCHAR
STARTCHAR e
ENCODING 101
SWIDTH 557 0
DWIDTH 13 0
BBX 11 12 1 0
BITMAP
1F00
79C0
6040
C060
C060
FFE0
C000
C000
C060
6040
71C0
1F80
ENDCHAR
STARTCHAR f
ENCODING 102
SWIDTH 334 0
DWIDTH 8 0
BBX 6 17 1 0
BITMAP
3C
20
60
60
60
FC
FC
60
60
60
60
60
60
60
60
60
60
ENDCHAR
STARTCHAR g
ENCODING 103
SWIDTH 620 0
DWIDTH 15 0
BBX 12 18 1 -6
BITMAP
1F90
39D0
6070
C030
C030
C030
C030
C030
C030
6070
30D0
1F90
0030
C030
6030
7060
3FC0
0600
ENDCHAR
STARTCHAR h
ENCODING 104
SWIDTH 569 0
DWIDTH 14 0
BBX 10 17 2 0
BITMAP
8000
8000
8000
8000
8000
9F00
B380
C0C0
C0C0
80C0
80C0
80C0
80C0
80C0
80C0
80C0
80C0
ENDCHAR
STARTCHAR i
ENCODING 105
SWIDTH 212 0
DWIDTH 5 0
BBX 3 17 1 0
BITMAP
E0
E0
E0
00
00
40
40
40
40
40
40
40
40
40
40
40
40
ENDCHAR
STARTCHAR j
ENCODING 106
SWIDTH 207 0
DWIDTH 5 0
BBX 5 22 -1 -5
BITMAP
38
38
38
00
00
10
10
10
10
10
10
10
10
10
10
10
10
10
10
10
30
F0
ENDCHAR
STARTCHAR k
ENCODING 107
SWIDTH 530 0
DWIDTH 13 0
BBX 10 17 2 0
BITMAP
8000
8000
8000
8000
8000
8180
8700
8E00
9C00
B000
F800
D800
8C00
8600
8300
8380
81C0
ENDCHAR
STARTCHAR l
ENCODING 108
SWIDTH 212 0
DWIDTH 5 0
BBX 1 17 2 0
BITMAP
80
80
80
80
80
80
80
80
80
80
80
80
80
80
80
80
80
ENDCHAR
STARTCHAR m
ENCODING 109
SWIDTH 899 0
DWIDTH 22 0
BBX 18 12 2 0
BITMAP
9F1F00
B3B380
C1E080
C0C0C0
C0C0C0
80C0C0
80C0C0
80C0C0
80C0C0
80C0C0
80C0C0
80C0C0
ENDCHAR
STARTCHAR n
ENCODING 110
SWIDTH 569 0
DWIDTH 14 0
BBX 10 12 2 0
BITMAP
9F00
B380
C0C0
C0C0
80C0
80C0
80C0
80C0
80C0
80C0
80C0
80C0
ENDCHAR
STARTCHAR o
ENCODING 111
SWIDTH 576 0
DWIDTH 14 0
BBX 12 12 1 0
BITMAP
1F80
39C0
6060
C030
C030
C030
C030
C030
C030
6060
70C0
1F80
ENDCHAR
STARTCHAR p
ENCODING 112
SWIDTH 602 0
DWIDTH 14 0
BBX 12 17 2 -5
BITMAP
9F80
B1C0
E060
C060
8020
8030
8030
8020
C060
C060
B1C0
9F80
8000
8000
8000
8000
8000
ENDCHAR
STARTCHAR q
ENCODING 113
SWIDTH 602 0
DWIDTH 14 0
BBX 12 17 1 -5
BITMAP
1FB0
31F0
6070
C030
C030
C030
C030
C030
C030
6070
71F0
1FB0
0030
0030
0030
0030
0030
ENDCHAR
STARTCHAR r
ENCODING 114
SWIDTH 381 0
DWIDTH 9 0
BBX 6 12 2 0
BITMAP
BC
BC
C0
C0
80
80
80
80
80
80
80
80
ENDCHAR
STARTCHAR s
ENCODING 115
SWIDTH 495 0
DWIDTH 12 0
BBX 10 12 1 0
BITMAP
3F00
7380
4180
4000
6000
7E00
1F80
0180
C0C0
C0C0
6180
3F00
ENDCHAR
STARTCHAR t
ENCODING 116
SWIDTH 355 0
DWIDTH 9 0
BBX 8 15 0 0
BITMAP
30
30
30
FF
FF
30
30
30
30
30
30
30
30
18
1E
ENDCHAR
STARTCHAR u
ENCODING 117
SWIDTH 538 0
DWIDTH 13 0
BBX 9 12 2 0
BITMAP
8080
8080
8080
8080
8080
8080
8080
8080
8180
C180
E280
7C80
ENDCHAR
STARTCHAR v
ENCODING 118
SWIDTH 552 0
DWIDTH 13 0
BBX 11 12 1 0
BITMAP
C060
4060
6040
60C0
2080
3180
1180
1900
1B00
0B00
0E00
0E00
ENDCHAR
STARTCHAR w
ENCODING 119
SWIDTH 806 0
DWIDTH 19 0
BBX 17 12 1 0
BITMAP
C0C180
41C180
614100
616300
236300
332200
323200
163600
161600
1C1C00
1C1C00
0C0C00
ENDCHAR
STARTCHAR x
ENCODING 120
SWIDTH 566 0
DWIDTH 14 0
BBX 10 12 2 0
BITMAP
C0C0
C180
6100
3300
1600
1C00
1C00
1600
3300
6100
4180
C0C0
ENDCHAR
STARTCHAR y
ENCODING 121
SWIDTH 590 0
DWIDTH 14 0
BBX 12 17 1 -5
BITMAP
C030
6030
6060
3060
3040
10C0
1880
0980
0D00
0F00
0700
0600
0600
0C00
0C00
1800
F800
ENDCHAR
STARTCHAR z
ENCODING 122
SWIDTH 465 0
DWIDTH 11 0
BBX 9 12 1 0
BITMAP
FF80
0180
0300
0600
0600
0C00
1800
3000
3000
6000
C000
FF80
ENDCHAR
STARTCHAR braceleft
ENCODING 123
SWIDTH 385 0
DWIDTH 9 0
BBX 7 22 1 -3
BITMAP
1E
30
30
30
30
10
18
18
18
30
E0
E0
30
18
18
18
10
30
30
30
30
1E
ENDCHAR
STARTCHAR bar
ENCODING 124
SWIDTH 234 0
DWIDTH 6 0
BBX 2 19 2 -2
BITMAP
C0
C0
C0
C0
C0
C0
C0
C0
C0
C0
C0
C0
C0
C0
C0
C0
C0
C0
C0
ENDCHAR
STARTCHAR braceright
ENCODING 125
SWIDTH 385 0
DWIDTH 9 0
BBX 7 22 1 -3
BITMAP
F0
18
18
18
18
18
10
10
10
18
0E
0E
18
10
10
10
18
18
18
18
18
F0
ENDCHAR
STARTCHAR asciitilde
ENCODING 126
SWIDTH 590 0
DWIDTH 14 0
BBX 10 3 2 6
BITMAP
7840
CFC0
8380
ENDCHAR
STARTCHAR uni00A0
ENCODING 160
SWIDTH 307 0
DWIDTH 7 0
BBX 1 1 0 0
BITMAP
00
ENDCHAR
STARTCHAR exclamdown
ENCODING 161
SWIDTH 275 0
DWIDTH 7 0
BBX 3 16 2 -3
BITMAP
E0
E0
00
00
40
40
C0
C0
C0
C0
C0
C0
C0
C0
C0
C0
ENDCHAR
STARTCHAR cent
ENCODING 162
SWIDTH 650 0
DWIDTH 16 0
BBX 11 17 2 -3
BITMAP
0600
0600
1F80
39C0
6060
4020
C000
C000
C000
C000
4020
6060
30C0
1F80
0600
0600
0600
ENDCHAR
STARTCHAR sterling
ENCODING 163
SWIDTH 650 0
DWIDTH 16 0
BBX 13 17 1 0
BITMAP
07C0
1C70
1810
3018
3018
3000
3000
1000
FFC0
FFC0
0800
0800
1800
1800
3000
6000
7FF8
ENDCHAR
STARTCHAR currency
ENCODING 164
SWIDTH 650 0
DWIDTH 16 0
BBX 10 10 3 2
BITMAP
80C0
7F80
6100
4180
4180
4180
4180
6300
FFC0
8080
ENDCHAR
STARTCHAR yen
ENCODING 165
SWIDTH 650 0
DWIDTH 16 0
BBX 12 17 2 0
BITMAP
C030
C060
6060
60C0
30C0
3180
1980
1B00
FFE0
0E00
0600
0600
FFE0
0600
0600
0600
0600
ENDCHAR
STARTCHAR brokenbar
ENCODING 166
SWIDTH 234 0
DWIDTH 6 0
BBX 2 19 2 -2
BITMAP
C0
C0
C0
C0
C0
C0
C0
C0
00
00
00
C0
C0
C0
C0
C0
C0
C0
C0
ENDCHAR
STARTCHAR section
ENCODING 167
SWIDTH 595 0
DWIDTH 14 0
BBX 12 23 1 -6
BITMAP
1F80
39E0
6060
4030
C030
4000
6000
7C00
5FC0
C0E0
C030
6010
7810
1FB0
03F0
0030
0030
C010
C010
C030
7060
3FC0
0200
ENDCHAR
STARTCHAR dieresis
ENCODING 168
SWIDTH 400 0
DWIDTH 10 0
BBX 6 3 2 14
BITMAP
DC
DC
DC
ENDCHAR
STARTCHAR copyright
ENCODING 169
SWIDTH 774 0
DWIDTH 19 0
BBX 17 17 1 0
BITMAP
03E000
1E3800
300C00
63E200
463300
CC1900
980900
980100
980180
980180
980100
C81900
4E3300
63E200
300400
1C1800
07F000
ENDCHAR
STARTCHAR ordfeminine
ENCODING 170
SWIDTH 452 0
DWIDTH 11 0
BBX 9 9 1 8
BITMAP
3D80
6380
C180
8180
8180
C180
C180
7780
1980
ENDCHAR
STARTCHAR guillemotleft
ENCODING 171
SWIDTH 508 0
DWIDTH 12 0
BBX 10 8 1 3
BITMAP
19C0
3100
2300
E600
6600
2300
3180
19C0
ENDCHAR
STARTCHAR logicalnot
ENCODING 172
SWIDTH 590 0
DWIDTH 14 0
BBX 11 5 2 4
BITMAP
FFE0
0060
0060
0060
0060
ENDCHAR
STARTCHAR registered
ENCODING 174
SWIDTH 501 0
DWIDTH 12 0
BBX 10 10 1 7
BITMAP
1E00
6180
5E80
9240
9E40
9240
5280
4080
3300
0400
ENDCHAR
STARTCHAR macron
ENCODING 175
SWIDTH 400 0
DWIDTH 10 0
BBX 7 2 1 14
BITMAP
FE
FE
ENDCHAR
STARTCHAR degree
ENCODING 176
SWIDTH 362 0
DWIDTH 9 0
BBX 7 6 1 11
BITMAP
38
6C
C4
C6
6C
78
ENDCHAR
STARTCHAR plusminus
ENCODING 177
SWIDTH 590 0
DWIDTH 14 0
BBX 11 12 2 2
BITMAP
0C00
0C00
0C00
0C00
FFE0
0C00
0C00
0C00
0C00
0000
FFE0
FFE0
ENDCHAR
STARTCHAR uni00B2
ENCODING 178
SWIDTH 359 0
DWIDTH 9 0
BBX 6 9 1 8
BITMAP
78
4C
C4
0C
18
30
40
FC
FC
ENDCHAR
STARTCHAR uni00B3
ENCODING 179
SWIDTH 351 0
DWIDTH 8 0
BBX 6 9 1 8
BITMAP
78
CC
04
0C
38
04
C4
6C
38
ENDCHAR
STARTCHAR acute
ENCODING 180
SWIDTH 400 0
DWIDTH 10 0
BBX 4 5 3 13
BITMAP
30
20
60
40
80
ENDCHAR
STARTCHAR uni00B5
ENCODING 181
SWIDTH 587 0
DWIDTH 14 0
BBX 10 17 2 -5
BITMAP
C040
C040
C040
C040
C040
C040
C040
C040
C0C0
C0C0
E340
FE40
C000
C000
C000
C000
C000
ENDCHAR
STARTCHAR paragraph
ENCODING 182
SWIDTH 653 0
DWIDTH 16 0
BBX 11 19 2 -2
BITMAP
1FE0
7FE0
FE60
FE60
FE60
FE60
FE60
FE60
7E60
1E60
0260
0260
0260
0260
0260
0260
0260
0260
0260
ENDCHAR
STARTCHAR periodcentered
ENCODING 183
SWIDTH 224 0
DWIDTH 5 0
BBX 3 3 1 7
BITMAP
40
E0
60
ENDCHAR
STARTCHAR cedilla
ENCODING 184
SWIDTH 400 0
DWIDTH 10 0
BBX 5 6 2 -6
BITMAP
20
40
78
08
08
F8
ENDCHAR
STARTCHAR uni00B9
ENCODING 185
SWIDTH 237 0
DWIDTH 6 0
BBX 3 9 1 8
BITMAP
20
E0
20
20
20
20
20
20
20
ENDCHAR
STARTCHAR ordmasculine
ENCODING 186
SWIDTH 440 0
DWIDTH 11 0
BBX 8 9 1 8
BITMAP
3C
63
C1
81
81
81
C3
7E
18
ENDCHAR
STARTCHAR guillemotright
ENCODING 187
SWIDTH 508 0
DWIDTH 12 0
BBX 10 8 1 3
BITMAP
E600
3300
1180
18C0
1980
3180
2300
E600
ENDCHAR
STARTCHAR onequarter
ENCODING 188
SWIDTH 727 0
DWIDTH 17 0
BBX 14 17 1 0
BITMAP
2030
E030
2060
2040
20C0
2080
2180
2100
2318
0218
0638
0428
0C48
08C8
18FC
1008
3008
ENDCHAR
STARTCHAR onehalf
ENCODING 189
SWIDTH 769 0
DWIDTH 18 0
BBX 15 17 1 0
BITMAP
2030
E030
2060
2040
20C0
2080
2180
2100
2308
023E
0662
0402
0C06
081C
1830
1020
307E
ENDCHAR
STARTCHAR threequarters
ENCODING 190
SWIDTH 827 0
DWIDTH 20 0
BBX 17 17 1 0
BITMAP
380400
440C00
861800
041800
383000
042000
C66000
6C4000
38C300
008700
018700
010B00
031B00
021300
063F80
0C0300
0C0300
ENDCHAR
STARTCHAR questiondown
ENCODING 191
SWIDTH 500 0
DWIDTH 12 0
BBX 10 17 1 -4
BITMAP
0E00
0E00
0000
0000
0600
0600
0400
1C00
7000
E000
C000
8000
80C0
C0C0
C0C0
7F80
3F00
ENDCHAR
STARTCHAR Agrave
ENCODING 192
SWIDTH 674 0
DWIDTH 16 0
BBX 14 23 1 0
BITMAP
1800
0C00
0400
0600
0200
0000
0300
0300
0780
0780
04C0
0CC0
0C40
0860
1860
1820
3030
3FF0
3FF0
6018
6018
400C
C00C
ENDCHAR
STARTCHAR Aacute
ENCODING 193
SWIDTH 674 0
DWIDTH 16 0
BBX 14 23 1 0
BITMAP
0060
00C0
00C0
0180
0100
0000
0300
0300
0780
0780
04C0
0CC0
0C40
0860
1860
1820
3030
3FF0
3FF0
6018
6018
400C
C00C
ENDCHAR
STARTCHAR Acircumflex
ENCODING 194
SWIDTH 674 0
DWIDTH 16 0
BBX 14 22 1 0
BITMAP
0300
07C0
0CC0
0820
0000
0300
0300
0780
0780
04C0
0CC0
0C40
0860
1860
1820
3030
3FF0
3FF0
6018
6018
400C
C00C
ENDCHAR
STARTCHAR Atilde
ENCODING 195
SWIDTH 674 0
DWIDTH 16 0
BBX 14 21 1 0
BITMAP
0E40
0FC0
1980
0000
0300
0300
0780
0780
04C0
0CC0
0C40
0860
1860
1820
3030
3FF0
3FF0
6018
6018
400C
C00C
ENDCHAR
STARTCHAR Adieresis
ENCODING 196
SWIDTH 674 0
DWIDTH 16 0
BBX 14 21 1 0
BITMAP
0CC0
0CC0
0000
0000
0300
0300
0780
0780
04C0
0CC0
0C40
0860
1860
1820
3030
3FF0
3FF0
6018
6018
400C
C00C
ENDCHAR
STARTCHAR Aring
ENCODING 197
SWIDTH 674 0
DWIDTH 16 0
BBX 14 23 1 0
BITMAP
0780
0480
04C0
0780
0300
0000
0300
0300
0780
0780
04C0
0CC0
0C40
0860
1860
1820
3030
3FF0
3FF0
6018
6018
400C
C00C
ENDCHAR
STARTCHAR AE
ENCODING 198
SWIDTH 904 0
DWIDTH 22 0
BBX 20 17 1 0
BITMAP
003FF0
007FF0
00D000
00D000
019000
019000
031000
021000
061FE0
0C1000
0C1000
181000
1FF000
301000
601000
601000
C01FF0
ENDCHAR
STARTCHAR Ccedilla
ENCODING 199
SWIDTH 705 0
DWIDTH 17 0
BBX 15 23 1 -6
BITMAP
07E0
1E78
301C
600C
6006
C000
C000
C000
C000
C000
C000
C000
4006
600C
300C
1C38
0FF0
0100
0100
03C0
0060
0060
07C0
ENDCHAR
STARTCHAR Egrave
ENCODING 200
SWIDTH 539 0
DWIDTH 13 0
BBX 10 23 2 0
BITMAP
6000
3000
1000
1800
0800
0000
FFC0
FFC0
8000
8000
8000
8000
8000
8000
FF80
8000
8000
8000
8000
8000
8000
8000
FFC0
ENDCHAR
STARTCHAR Eacute
ENCODING 201
SWIDTH 539 0
DWIDTH 13 0
BBX 10 23 2 0
BITMAP
0180
0100
0300
0600
0400
0000
FFC0
FFC0
8000
8000
8000
8000
8000
8000
FF80
8000
8000
8000
8000
8000
8000
8000
FFC0
ENDCHAR
STARTCHAR Ecircumflex
ENCODING 202
SWIDTH 539 0
DWIDTH 13 0
BBX 10 22 2 0
BITMAP
0C00
1F00
3300
2080
0000
FFC0
FFC0
8000
8000
8000
8000
8000
8000
FF80
8000
8000
8000
8000
8000
8000
8000
FFC0
ENDCHAR
STARTCHAR Edieresis
ENCODING 203
SWIDTH 539 0
DWIDTH 13 0
BBX 10 21 2 0
BITMAP
3300
3300
0000
0000
FFC0
FFC0
8000
8000
8000
8000
8000
8000
FF80
8000
8000
8000
8000
8000
8000
8000
FFC0
ENDCHAR
STARTCHAR Igrave
ENCODING 204
SWIDTH 234 0
DWIDTH 6 0
BBX 5 23 -1 0
BITMAP
C0
40
60
30
10
00
18
18
18
18
18
18
18
18
18
18
18
18
18
18
18
18
18
ENDCHAR
STARTCHAR Iacute
ENCODING 205
SWIDTH 234 0
DWIDTH 6 0
BBX 5 23 2 0
BITMAP
18
30
20
60
C0
00
C0
C0
C0
C0
C0
C0
C0
C0
C0
C0
C0
C0
C0
C0
C0
C0
C0
ENDCHAR
STARTCHAR Icircumflex
ENCODING 206
SWIDTH 234 0
DWIDTH 6 0
BBX 6 22 0 0
BITMAP
30
F8
CC
84
00
30
30
30
30
30
30
30
30
30
30
30
30
30
30
30
30
30
ENDCHAR
STARTCHAR Idieresis
ENCODING 207
SWIDTH 234 0
DWIDTH 6 0
BBX 6 21 0 0
BITMAP
DC
DC
00
00
30
30
30
30
30
30
30
30
30
30
30
30
30
30
30
30
30
ENDCHAR
STARTCHAR Eth
ENCODING 208
SWIDTH 709 0
DWIDTH 17 0
BBX 15 17 1 0
BITMAP
7F80
7FF0
6018
600C
600C
6006
6006
6006
FF06
6006
6006
6006
6004
600C
6018
60F0
7FC0
ENDCHAR
STARTCHAR Ntilde
ENCODING 209
SWIDTH 691 0
DWIDTH 17 0
BBX 13 21 2 0
BITMAP
1C80
1F80
1300
0000
C018
E018
E018
F018
D818
D818
CC18
C618
C618
C318
C198
C198
C0D8
C058
C078
C038
C018
ENDCHAR
STARTCHAR Ograve
ENCODING 210
SWIDTH 760 0
DWIDTH 18 0
BBX 16 23 1 0
BITMAP
0C00
0600
0200
0300
0100
0000
07E0
1E78
300C
6006
6003
C003
C003
C001
C001
C001
C003
C003
4003
6006
300C
1C38
0FF0
ENDCHAR
STARTCHAR Oacute
ENCODING 211
SWIDTH 760 0
DWIDTH 18 0
BBX 16 23 1 0
BITMAP
0030
0020
0060
00C0
0080
0000
07E0
1E78
300C
6006
6003
C003
C003
C001
C001
C001
C003
C003
4003
6006
300C
1C38
0FF0
ENDCHAR
STARTCHAR Ocircumflex
ENCODING 212
SWIDTH 760 0
DWIDTH 18 0
BBX 16 22 1 0
BITMAP
0180
03E0
0660
0410
0000
07E0
1E78
300C
6006
6003
C003
C003
C001
C001
C001
C003
C003
4003
6006
300C
1C38
0FF0
ENDCHAR
STARTCHAR Otilde
ENCODING 213
SWIDTH 760 0
DWIDTH 18 0
BBX 16 21 1 0
BITMAP
0720
07E0
0CC0
0000
07E0
1E78
300C
6006
6003
C003
C003
C001
C001
C001
C003
C003
4003
6006
300C
1C38
0FF0
ENDCHAR
STARTCHAR Odieresis
ENCODING 214
SWIDTH 760 0
DWIDTH 18 0
BBX 16 21 1 0
BITMAP
0660
0660
0000
0000
07E0
1E78
300C
6006
6003
C003
C003
C001
C001
C001
C003
C003
4003
6006
300C
1C38
0FF0
ENDCHAR
STARTCHAR multiply
ENCODING 215
SWIDTH 590 0
DWIDTH 14 0
BBX 9 9 3 4
BITMAP
8100
C380
6600
3C00
1800
3C00
6600
C300
8100
ENDCHAR
STARTCHAR Oslash
ENCODING 216
SWIDTH 787 0
DWIDTH 19 0
BBX 17 17 1 0
BITMAP
07E180
1E7B00
300E00
600E00
601B00
C03300
C06300
C0C100
C0C100
C18100
C30300
C60300
4C0300
780600
300C00
7C3800
CFF000
ENDCHAR
STARTCHAR Ugrave
ENCODING 217
SWIDTH 634 0
DWIDTH 15 0
BBX 12 23 2 0
BITMAP
3000
3000
1800
0800
0C00
0000
8030
8030
8030
8030
8030
8030
8030
8030
8030
8030
8030
8030
8030
C020
C060
71C0
3F80
ENDCHAR
STARTCHAR Uacute
ENCODING 218
SWIDTH 634 0
DWIDTH 15 0
BBX 12 23 2 0
BITMAP
0180
0180
0300
0200
0600
0000
8030
8030
8030
8030
8030
8030
8030
8030
8030
8030
8030
8030
8030
C020
C060
71C0
3F80
ENDCHAR
STARTCHAR Ucircumflex
ENCODING 219
SWIDTH 634 0
DWIDTH 15 0
BBX 12 22 2 0
BITMAP
0400
1F00
3180
2080
0000
8030
8030
8030
8030
8030
8030
8030
8030
8030
8030
8030
8030
8030
C020
C060
71C0
3F80
ENDCHAR
STARTCHAR Udieresis
ENCODING 220
SWIDTH 634 0
DWIDTH 15 0
BBX 12 21 2 0
BITMAP
1B80
1B80
0000
0000
8030
8030
8030
8030
8030
8030
8030
8030
8030
8030
8030
8030
8030
C020
C060
71C0
3F80
ENDCHAR
STARTCHAR Yacute
ENCODING 221
SWIDTH 642 0
DWIDTH 15 0
BBX 13 23 1 0
BITMAP
0060
00C0
0080
0100
0300
0000
C018
6010
6030
3020
1060
1840
08C0
0D80
0580
0700
0300
0300
0300
0300
0300
0300
0300
ENDCHAR
STARTCHAR Thorn
ENCODING 222
SWIDTH 589 0
DWIDTH 14 0
BBX 11 17 2 0
BITMAP
C000
C000
C000
C000
FF80
C1C0
C040
C060
C060
C060
C040
C0C0
FF80
C000
C000
C000
C000
ENDCHAR
STARTCHAR germandbls
ENCODING 223
SWIDTH 579 0
DWIDTH 14 0
BBX 11 17 2 0
BITMAP
3E00
7780
C180
C0C0
80C0
8080
8180
9F00
9F80
80C0
8060
8060
8060
8060
80C0
8780
9F00
ENDCHAR
STARTCHAR agrave
ENCODING 224
SWIDTH 555 0
DWIDTH 13 0
BBX 11 18 1 0
BITMAP
6000
3000
1000
1800
0800
0000
3F00
7180
C0C0
C0C0
00C0
3FC0
60C0
C0C0
C0C0
C1C0
E360
7E60
ENDCHAR
STARTCHAR aacute
ENCODING 225
SWIDTH 555 0
DWIDTH 13 0
BBX 11 18 1 0
BITMAP
0180
0300
0200
0600
0400
0000
3F00
7180
C0C0
C0C0
00C0
3FC0
60C0
C0C0
C0C0
C1C0
E360
7E60
ENDCHAR
STARTCHAR acircumflex
ENCODING 226
SWIDTH 555 0
DWIDTH 13 0
BBX 11 17 1 0
BITMAP
0C00
3F00
3300
2080
0000
3F00
7180
C0C0
C0C0
00C0
3FC0
60C0
C0C0
C0C0
C1C0
E360
7E60
ENDCHAR
STARTCHAR atilde
ENCODING 227
SWIDTH 555 0
DWIDTH 13 0
BBX 11 16 1 0
BITMAP
3900
3F00
6600
0000
3F00
7180
C0C0
C0C0
00C0
3FC0
60C0
C0C0
C0C0
C1C0
E360
7E60
ENDCHAR
STARTCHAR adieresis
ENCODING 228
SWIDTH 555 0
DWIDTH 13 0
BBX 11 17 1 0
BITMAP
3300
3300
3300
0000
0000
3F00
7180
C0C0
C0C0
00C0
3FC0
60C0
C0C0
C0C0
C1C0
E360
7E60
ENDCHAR
STARTCHAR aring
ENCODING 229
SWIDTH 555 0
DWIDTH 13 0
BBX 11 18 1 0
BITMAP
1E00
1200
1300
1E00
0C00
0000
3F00
7180
C0C0
C0C0
00C0
3FC0
60C0
C0C0
C0C0
C1C0
E360
7E60
ENDCHAR
STARTCHAR ae
ENCODING 230
SWIDTH 900 0
DWIDTH 22 0
BBX 19 12 1 0
BITMAP
3F1F80
73B9C0
60E060
C0C060
00C020
3FFFE0
60C000
C0C000
C0C060
C1E060
E338C0
7E1F80
ENDCHAR
STARTCHAR ccedilla
ENCODING 231
SWIDTH 548 0
DWIDTH 13 0
BBX 11 18 1 -6
BITMAP
1F80
31C0
6060
C060
C000
C000
C000
C000
C060
6060
71C0
1F80
0400
0800
0F00
0100
0100
1F00
ENDCHAR
STARTCHAR egrave
ENCODING 232
SWIDTH 557 0
DWIDTH 13 0
BBX 11 18 1 0
BITMAP
3000
1000
1800
0C00
0400
0000
1F00
79C0
6040
C060
C060
FFE0
C000
C000
C060
6040
71C0
1F80
ENDCHAR
STARTCHAR eacute
ENCODING 233
SWIDTH 557 0
DWIDTH 13 0
BBX 11 18 1 0
BITMAP
00C0
0180
0100
0200
0600
0000
1F00
79C0
6040
C060
C060
FFE0
C000
C000
C060
6040
71C0
1F80
ENDCHAR
STARTCHAR ecircumflex
ENCODING 234
SWIDTH 557 0
DWIDTH 13 0
BBX 11 17 1 0
BITMAP
0600
1F00
1180
2080
0000
1F00
79C0
6040
C060
C060
FFE0
C000
C000
C060
6040
71C0
1F80
ENDCHAR
STARTCHAR edieresis
ENCODING 235
SWIDTH 557 0
DWIDTH 13 0
BBX 11 17 1 0
BITMAP
1B80
1B80
1B80
0000
0000
1F00
79C0
6040
C060
C060
FFE0
C000
C000
C060
6040
71C0
1F80
ENDCHAR
STARTCHAR igrave
ENCODING 236
SWIDTH 210 0
DWIDTH 5 0
BBX 3 18 0 0
BITMAP
C0
C0
40
60
20
00
20
20
20
20
20
20
20
20
20
20
20
20
ENDCHAR
STARTCHAR iacute
ENCODING 237
SWIDTH 210 0
DWIDTH 5 0
BBX 3 18 2 0
BITMAP
60
60
40
C0
80
00
80
80
80
80
80
80
80
80
80
80
80
80
ENDCHAR
STARTCHAR icircumflex
ENCODING 238
SWIDTH 210 0
DWIDTH 5 0
BBX 5 17 0 0
BITMAP
20
F8
C8
88
00
20
20
20
20
20
20
20
20
20
20
20
20
ENDCHAR
STARTCHAR idieresis
ENCODING 239
SWIDTH 210 0
DWIDTH 5 0
BBX 5 17 0 0
BITMAP
D8
D8
D8
00
00
20
20
20
20
20
20
20
20
20
20
20
20
ENDCHAR
STARTCHAR eth
ENCODING 240
SWIDTH 589 0
DWIDTH 14 0
BBX 12 17 1 0
BITMAP
0620
01E0
0780
0840
0060
1FA0
39F0
6070
C030
C030
8010
8010
C030
C030
6060
30C0
1F80
ENDCHAR
STARTCHAR ntilde
ENCODING 241
SWIDTH 569 0
DWIDTH 14 0
BBX 10 16 2 0
BITMAP
3900
3F00
2600
0000
9F00
B380
C0C0
C0C0
80C0
80C0
80C0
80C0
80C0
80C0
80C0
80C0
ENDCHAR
STARTCHAR ograve
ENCODING 242
SWIDTH 576 0
DWIDTH 14 0
BBX 12 18 1 0
BITMAP
3000
1800
0800
0C00
0400
0000
1F80
39C0
6060
C030
C030
C030
C030
C030
C030
6060
70C0
1F80
ENDCHAR
STARTCHAR oacute
ENCODING 243
SWIDTH 576 0
DWIDTH 14 0
BBX 12 18 1 0
BITMAP
00C0
0180
0100
0300
0200
0000
1F80
39C0
6060
C030
C030
C030
C030
C030
C030
6060
70C0
1F80
ENDCHAR
STARTCHAR ocircumflex
ENCODING 244
SWIDTH 576 0
DWIDTH 14 0
BBX 12 17 1 0
BITMAP
0600
1F80
1980
2080
0000
1F80
39C0
6060
C030
C030
C030
C030
C030
C030
6060
70C0
1F80
ENDCHAR
STARTCHAR otilde
ENCODING 245
SWIDTH 576 0
DWIDTH 14 0
BBX 12 16 1 0
BITMAP
1C80
3F80
3300
0000
1F80
39C0
6060
C030
C030
C030
C030
C030
C030
6060
70C0
1F80
ENDCHAR
STARTCHAR odieresis
ENCODING 246
SWIDTH 576 0
DWIDTH 14 0
BBX 12 17 1 0
BITMAP
1980
1980
1980
0000
0000
1F80
39C0
6060
C030
C030
C030
C030
C030
C030
6060
70C0
1F80
ENDCHAR
STARTCHAR divide
ENCODING 247
SWIDTH 590 0
DWIDTH 14 0
BBX 11 11 2 3
BITMAP
0C00
0C00
0000
0000
0000
FFE0
0000
0000
0000
0C00
0C00
ENDCHAR
STARTCHAR oslash
ENCODING 248
SWIDTH 567 0
DWIDTH 14 0
BBX 12 12 1 0
BITMAP
1FB0
39E0
60E0
C1E0
C330
C630
C430
C830
D860
7060
71C0
DF80
ENDCHAR
STARTCHAR ugrave
ENCODING 249
SWIDTH 538 0
DWIDTH 13 0
BBX 9 18 2 0
BITMAP
6000
2000
3000
1000
0800
0000
8080
8080
8080
8080
8080
8080
8080
8080
8180
C180
E280
7C80
ENDCHAR
STARTCHAR uacute
ENCODING 250
SWIDTH 538 0
DWIDTH 13 0
BBX 9 18 2 0
BITMAP
0300
0300
0600
0400
0C00
0000
8080
8080
8080
8080
8080
8080
8080
8080
8180
C180
E280
7C80
ENDCHAR
STARTCHAR ucircumflex
ENCODING 251
SWIDTH 538 0
DWIDTH 13 0
BBX 9 17 2 0
BITMAP
0C00
3E00
6300
4100
0000
8080
8080
8080
8080
8080
8080
8080
8080
8180
C180
E280
7C80
ENDCHAR
STARTCHAR udieresis
ENCODING 252
SWIDTH 538 0
DWIDTH 13 0
BBX 9 17 2 0
BITMAP
3700
3700
3700
0000
0000
8080
8080
8080
8080
8080
8080
8080
8080
8180
C180
E280
7C80
ENDCHAR
STARTCHAR yacute
ENCODING 253
SWIDTH 590 0
DWIDTH 14 0
BBX 12 23 1 -5
BITMAP
00C0
0080
0180
0100
0200
0000
C030
6030
6060
3060
3040
10C0
1880
0980
0D00
0F00
0700
0600
0600
0C00
0C00
1800
F800
ENDCHAR
STARTCHAR thorn
ENCODING 254
SWIDTH 605 0
DWIDTH 15 0
BBX 12 22 2 -5
BITMAP
8000
8000
8000
8000
8000
9F80
B1C0
E060
C060
C020
8030
8030
C030
C060
E060
B1C0
9F80
8000
8000
8000
8000
8000
ENDCHAR
STARTCHAR ydieresis
ENCODING 255
SWIDTH 590 0
DWIDTH 14 0
BBX 12 22 1 -5
BITMAP
1D80
1D80
1D80
0000
0000
C030
6030
6060
3060
3040
10C0
1880
0980
0D00
0F00
0700
0600
0600
0C00
0C00
1800
F800
ENDCHAR
STARTCHAR Amacron
ENCODING 256
SWIDTH 674 0
DWIDTH 16 0
BBX 14 21 1 0
BITMAP
1FE0
1FE0
0000
0000
0300
0300
0780
0780
04C0
0CC0
0C40
0860
1860
1820
3030
3FF0
3FF0
6018
6018
400C
C00C
ENDCHAR
STARTCHAR amacron
ENCODING 257
SWIDTH 555 0
DWIDTH 13 0
BBX 11 16 1 0
BITMAP
7F80
7F80
0000
0000
3F00
7180
C0C0
C0C0
00C0
3FC0
60C0
C0C0
C0C0
C1C0
E360
7E60
ENDCHAR
STARTCHAR Abreve
ENCODING 258
SWIDTH 674 0
DWIDTH 16 0
BBX 14 22 1 0
BITMAP
0840
0840
0FC0
0380
0000
0300
0300
0780
0780
04C0
0CC0
0C40
0860
1860
1820
3030
3FF0
3FF0
6018
6018
400C
C00C
ENDCHAR
STARTCHAR abreve
ENCODING 259
SWIDTH 555 0
DWIDTH 13 0
BBX 11 17 1 0
BITMAP
2100
3300
1E00
0000
0000
3F00
7180
C0C0
C0C0
00C0
3FC0
60C0
C0C0
C0C0
C1C0
E360
7E60
ENDCHAR
STARTCHAR Aogonek
ENCODING 260
SWIDTH 674 0
DWIDTH 16 0
BBX 14 22 1 -5
BITMAP
0300
0300
0780
0780
04C0
0CC0
0C40
0860
1860
1820
3030
3FF0
3FF0
6018
6018
400C
C00C
0018
0030
0020
0034
001C
ENDCHAR
STARTCHAR aogonek
ENCODING 261
SWIDTH 555 0
DWIDTH 13 0
BBX 12 17 1 -5
BITMAP
3F00
7180
C0C0
C0C0
00C0
3FC0
60C0
C0C0
C0C0
C1C0
E360
7E60
00C0
0180
0180
0190
00F0
ENDCHAR
STARTCHAR Cacute
ENCODING 262
SWIDTH 705 0
DWIDTH 17 0
BBX 15 23 1 0
BITMAP
0030
0060
0040
00C0
0180
0000
07E0
1E78
301C
600C
6006
C000
C000
C000
C000
C000
C000
C000
4006
600C
300C
1C38
0FF0
ENDCHAR
STARTCHAR cacute
ENCODING 263
SWIDTH 548 0
DWIDTH 13 0
BBX 11 18 1 0
BITMAP
00C0
0180
0100
0200
0600
0000
1F80
31C0
6060
C060
C000
C000
C000
C000
C060
6060
71C0
1F80
ENDCHAR
STARTCHAR Cdotaccent
ENCODING 266
SWIDTH 705 0
DWIDTH 17 0
BBX 15 21 1 0
BITMAP
0180
0180
0000
0000
07E0
1E78
301C
600C
6006
C000
C000
C000
C000
C000
C000
C000
4006
600C
300C
1C38
0FF0
ENDCHAR
STARTCHAR cdotaccent
ENCODING 267
SWIDTH 548 0
DWIDTH 13 0
BBX 11 17 1 0
BITMAP
0600
0600
0600
0000
0000
1F80
31C0
6060
C060
C000
C000
C000
C000
C060
6060
71C0
1F80
ENDCHAR
STARTCHAR Ccaron
ENCODING 268
SWIDTH 705 0
DWIDTH 17 0
BBX 15 22 1 0
BITMAP
0820
0660
03C0
0100
0000
07E0
1E78
301C
600C
6006
C000
C000
C000
C000
C000
C000
C000
4006
600C
300C
1C38
0FF0
ENDCHAR
STARTCHAR ccaron
ENCODING 269
SWIDTH 548 0
DWIDTH 13 0
BBX 11 17 1 0
BITMAP
2080
1B80
0F00
0400
0000
1F80
31C0
6060
C060
C000
C000
C000
C000
C060
6060
71C0
1F80
ENDCHAR
STARTCHAR Dcaron
ENCODING 270
SWIDTH 685 0
DWIDTH 16 0
BBX 13 22 2 0
BITMAP
2100
3300
1E00
0800
0000
FF00
FFC0
C060
C030
C018
C018
C008
C008
C008
C008
C008
C018
C018
C030
C070
C3E0
FF00
ENDCHAR
STARTCHAR dcaron
ENCODING 271
SWIDTH 674 0
DWIDTH 16 0
BBX 15 18 1 0
BITMAP
0006
0036
0034
0034
0034
0030
1FB0
31F0
6070
C030
C030
C030
C030
C030
C030
6070
71F0
1FB0
ENDCHAR
STARTCHAR Dcroat
ENCODING 272
SWIDTH 709 0
DWIDTH 17 0
BBX 15 17 1 0
BITMAP
7F80
7FF0
6018
600C
600C
6006
6006
6006
FF06
6006
6006
6006
6004
600C
6018
60F0
7FC0
ENDCHAR
STARTCHAR dcroat
ENCODING 273
SWIDTH 656 0
DWIDTH 16 0
BBX 14 17 1 0
BITMAP
0030
0030
01FC
0030
0030
1FB0
31F0
6070
C030
C030
C030
C030
C030
C030
6070
71F0
1FB0
ENDCHAR
STARTCHAR Emacron
ENCODING 274
SWIDTH 539 0
DWIDTH 13 0
BBX 10 21 2 0
BITMAP
7F80
7F80
0000
0000
FFC0
FFC0
8000
8000
8000
8000
8000
8000
FF80
8000
8000
8000
8000
8000
8000
8000
FFC0
ENDCHAR
STARTCHAR emacron
ENCODING 275
SWIDTH 557 0
DWIDTH 13 0
BBX 11 16 1 0
BITMAP
3F80
3F80
0000
0000
1F00
79C0
6040
C060
C060
FFE0
C000
C000
C060
6040
71C0
1F80
ENDCHAR
STARTCHAR Ebreve
ENCODING 276
SWIDTH 539 0
DWIDTH 13 0
BBX 10 22 2 0
BITMAP
2100
2100
3F00
0E00
0000
FFC0
FFC0
8000
8000
8000
8000
8000
8000
FF80
8000
8000
8000
8000
8000
8000
8000
FFC0
ENDCHAR
STARTCHAR ebreve
ENCODING 277
SWIDTH 557 0
DWIDTH 13 0
BBX 11 17 1 0
BITMAP
1080
1180
1F00
0000
0000
1F00
79C0
6040
C060
C060
FFE0
C000
C000
C060
6040
71C0
1F80
ENDCHAR
STARTCHAR Edotaccent
ENCODING 278
SWIDTH 539 0
DWIDTH 13 0
BBX 10 21 2 0
BITMAP
0C00
0C00
0000
0000
FFC0
FFC0
8000
8000
8000
8000
8000
8000
FF80
8000
8000
8000
8000
8000
8000
8000
FFC0
ENDCHAR
STARTCHAR edotaccent
ENCODING 279
SWIDTH 557 0
DWIDTH 13 0
BBX 11 17 1 0
BITMAP
0600
0600
0600
0000
0000
1F00
79C0
6040
C060
C060
FFE0
C000
C000
C060
6040
71C0
1F80
ENDCHAR
STARTCHAR Eogonek
ENCODING 280
SWIDTH 539 0
DWIDTH 13 0
BBX 10 22 2 -5
BITMAP
FFC0
FFC0
8000
8000
8000
8000
8000
8000
FF80
8000
8000
8000
8000
8000
8000
8000
FFC0
0180
0200
0600
0340
01C0
ENDCHAR
STARTCHAR eogonek
ENCODING 281
SWIDTH 557 0
DWIDTH 13 0
BBX 11 17 1 -5
BITMAP
1F00
79C0
6040
C060
C060
FFE0
C000
C000
C060
6040
71C0
1F80
0600
0C00
0800
0C80
0700
ENDCHAR
STARTCHAR Ecaron
ENCODING 282
SWIDTH 539 0
DWIDTH 13 0
BBX 10 22 2 0
BITMAP
2100
3300
1E00
0400
0000
FFC0
FFC0
8000
8000
8000
8000
8000
8000
FF80
8000
8000
8000
8000
8000
8000
8000
FFC0
ENDCHAR
STARTCHAR ecaron
ENCODING 283
SWIDTH 557 0
DWIDTH 13 0
BBX 11 17 1 0
BITMAP
2080
1B80
0F00
0400
0000
1F00
79C0
6040
C060
C060
FFE0
C000
C000
C060
6040
71C0
1F80
ENDCHAR
STARTCHAR Gbreve
ENCODING 286
SWIDTH 733 0
DWIDTH 18 0
BBX 16 22 1 0
BITMAP
0420
0420
07E0
0380
0000
07E0
1FF8
301C
600E
6006
C000
C000
C000
C07F
C07F
C002
C002
4006
6006
300C
1C38
0FF0
ENDCHAR
STARTCHAR gbreve
ENCODING 287
SWIDTH 620 0
DWIDTH 15 0
BBX 12 23 1 -6
BITMAP
1080
1980
0F00
0000
0000
1F90
39D0
6070
C030
C030
C030
C030
C030
C030
6070
30D0
1F90
0030
C030
6030
7060
3FC0
0600
ENDCHAR
STARTCHAR Gdotaccent
ENCODING 288
SWIDTH 733 0
DWIDTH 18 0
BBX 16 21 1 0
BITMAP
0180
0180
0000
0000
07E0
1FF8
301C
600E
6006
C000
C000
C000
C07F
C07F
C002
C002
4006
6006
300C
1C38
0FF0
ENDCHAR
STARTCHAR gdotaccent
ENCODING 289
SWIDTH 620 0
DWIDTH 15 0
BBX 12 23 1 -6
BITMAP
0600
0600
0600
0000
0000
1F90
39D0
6070
C030
C030
C030
C030
C030
C030
6070
30D0
1F90
0030
C030
6030
7060
3FC0
0600
ENDCHAR
STARTCHAR uni0122
ENCODING 290
SWIDTH 733 0
DWIDTH 18 0
BBX 16 23 1 -6
BITMAP
07E0
1FF8
301C
600E
6006
C000
C000
C000
C07F
C07F
C002
C002
4006
6006
300C
1C38
0FF0
0000
0180
0180
0080
0080
0100
ENDCHAR
STARTCHAR uni0123
ENCODING 291
SWIDTH 620 0
DWIDTH 15 0
BBX 12 24 1 -6
BITMAP
0200
0400
0400
0600
0600
0000
1F90
39D0
6070
C030
C030
C030
C030
C030
C030
6070
30D0
1F90
0030
C030
6030
7060
3FC0
0600
ENDCHAR
STARTCHAR Hbar
ENCODING 294
SWIDTH 772 0
DWIDTH 19 0
BBX 17 17 1 0
BITMAP
300600
300600
300600
FFFF80
FFFF80
300600
300600
300600
3FFE00
300600
300600
300600
300600
300600
300600
300600
300600
ENDCHAR
STARTCHAR hbar
ENCODING 295
SWIDTH 626 0
DWIDTH 15 0
BBX 13 17 0 0
BITMAP
1800
1800
FF00
1800
1800
1BE0
1E30
1C18
1818
1808
1808
1808
1808
1808
1808
1808
1808
ENDCHAR
STARTCHAR Itilde
ENCODING 296
SWIDTH 234 0
DWIDTH 6 0
BBX 7 21 -1 0
BITMAP
72
FE
CC
00
18
18
18
18
18
18
18
18
18
18
18
18
18
18
18
18
18
ENDCHAR
STARTCHAR itilde
ENCODING 297
SWIDTH 210 0
DWIDTH 5 0
BBX 5 16 0 0
BITMAP
C8
F8
90
00
20
20
20
20
20
20
20
20
20
20
20
20
ENDCHAR
STARTCHAR Imacron
ENCODING 298
SWIDTH 234 0
DWIDTH 6 0
BBX 7 21 -1 0
BITMAP
FE
FE
00
00
18
18
18
18
18
18
18
18
18
18
18
18
18
18
18
18
18
ENDCHAR
STARTCHAR imacron
ENCODING 299
SWIDTH 210 0
DWIDTH 5 0
BBX 5 16 0 0
BITMAP
F8
F8
00
00
20
20
20
20
20
20
20
20
20
20
20
20
ENDCHAR
STARTCHAR Ibreve
ENCODING 300
SWIDTH 234 0
DWIDTH 6 0
BBX 6 22 0 0
BITMAP
84
84
FC
70
00
30
30
30
30
30
30
30
30
30
30
30
30
30
30
30
30
30
ENDCHAR
STARTCHAR ibreve
ENCODING 301
SWIDTH 210 0
DWIDTH 5 0
BBX 5 17 0 0
BITMAP
88
D8
70
00
00
20
20
20
20
20
20
20
20
20
20
20
20
ENDCHAR
STARTCHAR Iogonek
ENCODING 302
SWIDTH 234 0
DWIDTH 6 0
BBX 5 22 -1 -5
BITMAP
18
18
18
18
18
18
18
18
18
18
18
18
18
18
18
18
18
70
40
C0
E8
78
ENDCHAR
STARTCHAR iogonek
ENCODING 303
SWIDTH 210 0
DWIDTH 5 0
BBX 3 22 1 -5
BITMAP
E0
E0
E0
00
00
40
40
40
40
40
40
40
40
40
40
40
40
40
C0
80
A0
C0
ENDCHAR
STARTCHAR Idotaccent
ENCODING 304
SWIDTH 234 0
DWIDTH 6 0
BBX 2 21 2 0
BITMAP
C0
C0
00
00
C0
C0
C0
C0
C0
C0
C0
C0
C0
C0
C0
C0
C0
C0
C0
C0
C0
ENDCHAR
STARTCHAR dotlessi
ENCODING 305
SWIDTH 210 0
DWIDTH 5 0
BBX 1 12 2 0
BITMAP
80
80
80
80
80
80
80
80
80
80
80
80
ENDCHAR
STARTCHAR IJ
ENCODING 306
SWIDTH 415 0
DWIDTH 10 0
BBX 7 17 1 0
BITMAP
C2
C2
C2
C2
C2
C2
C2
C2
C2
C2
C2
C2
02
06
06
1C
F8
ENDCHAR
STARTCHAR ij
ENCODING 307
SWIDTH 447 0
DWIDTH 11 0
BBX 8 22 1 -5
BITMAP
E3
E3
E3
00
00
43
43
43
43
43
43
43
43
43
43
43
43
03
03
03
03
7E
ENDCHAR
STARTCHAR uni0136
ENCODING 310
SWIDTH 630 0
DWIDTH 15 0
BBX 12 23 2 -6
BITMAP
C070
C0C0
C1C0
C380
C700
CE00
DC00
D800
FC00
EC00
C600
C300
C300
C180
C0C0
C060
C070
0000
0C00
0C00
0400
0400
0800
ENDCHAR
STARTCHAR uni0137
ENCODING 311
SWIDTH 530 0
DWIDTH 13 0
BBX 10 22 2 -5
BITMAP
8000
8000
8000
8000
8000
8180
8700
8E00
9C00
B000
F800
D800
8C00
8600
8300
8380
81C0
0000
1800
1800
0800
1800
ENDCHAR
STARTCHAR Lacute
ENCODING 313
SWIDTH 521 0
DWIDTH 13 0
BBX 10 23 2 0
BITMAP
1800
3000
2000
6000
C000
0000
C000
C000
C000
C000
C000
C000
C000
C000
C000
C000
C000
C000
C000
C000
C000
C000
FFC0
ENDCHAR
STARTCHAR lacute
ENCODING 314
SWIDTH 212 0
DWIDTH 5 0
BBX 4 23 2 0
BITMAP
30
30
60
40
C0
00
80
80
80
80
80
80
80
80
80
80
80
80
80
80
80
80
80
ENDCHAR
STARTCHAR uni013B
ENCODING 315
SWIDTH 521 0
DWIDTH 13 0
BBX 10 23 2 -6
BITMAP
C000
C000
C000
C000
C000
C000
C000
C000
C000
C000
C000
C000
C000
C000
C000
C000
FFC0
0000
0C00
0C00
0400
0400
0800
ENDCHAR
STARTCHAR uni013C
ENCODING 316
SWIDTH 212 0
DWIDTH 5 0
BBX 3 22 1 -5
BITMAP
40
40
40
40
40
40
40
40
40
40
40
40
40
40
40
40
40
00
E0
E0
20
C0
ENDCHAR
STARTCHAR Lcaron
ENCODING 317
SWIDTH 521 0
DWIDTH 13 0
BBX 10 17 2 0
BITMAP
CC00
CC00
CC00
C800
C800
C000
C000
C000
C000
C000
C000
C000
C000
C000
C000
C000
FFC0
ENDCHAR
STARTCHAR lcaron
ENCODING 318
SWIDTH 280 0
DWIDTH 7 0
BBX 4 18 2 0
BITMAP
10
90
90
90
90
80
80
80
80
80
80
80
80
80
80
80
80
80
ENDCHAR
STARTCHAR Ldot
ENCODING 319
SWIDTH 521 0
DWIDTH 13 0
BBX 10 17 2 0
BITMAP
C000
C000
C000
C000
C000
C000
C000
C200
C300
C300
C000
C000
C000
C000
C000
C000
FFC0
ENDCHAR
STARTCHAR ldot
ENCODING 320
SWIDTH 375 0
DWIDTH 9 0
BBX 5 17 2 0
BITMAP
80
80
80
80
80
80
80
98
98
80
80
80
80
80
80
80
80
ENDCHAR
STARTCHAR Lslash
ENCODING 321
SWIDTH 572 0
DWIDTH 14 0
BBX 12 17 1 0
BITMAP
3000
3000
3000
3000
3000
3000
3200
3E00
7000
B000
3000
3000
3000
3000
3000
3000
3FF0
ENDCHAR
STARTCHAR lslash
ENCODING 322
SWIDTH 289 0
DWIDTH 7 0
BBX 5 17 1 0
BITMAP
20
20
20
20
20
28
38
E0
A0
20
20
20
20
20
20
20
20
ENDCHAR
STARTCHAR Nacute
ENCODING 323
SWIDTH 691 0
DWIDTH 17 0
BBX 13 23 2 0
BITMAP
00C0
0080
0180
0300
0200
0000
C018
E018
E018
F018
D818
D818
CC18
C618
C618
C318
C198
C198
C0D8
C058
C078
C038
C018
ENDCHAR
STARTCHAR nacute
ENCODING 324
SWIDTH 569 0
DWIDTH 14 0
BBX 10 18 2 0
BITMAP
0180
0100
0300
0600
0400
0000
9F00
B380
C0C0
C0C0
80C0
80C0
80C0
80C0
80C0
80C0
80C0
80C0
ENDCHAR
STARTCHAR uni0145
ENCODING 325
SWIDTH 691 0
DWIDTH 17 0
BBX 13 23 2 -6
BITMAP
C018
E018
E018
F018
D818
D818
CC18
C618
C618
C318
C198
C198
C0D8
C058
C078
C038
C018
0000
0600
0600
0200
0200
0600
ENDCHAR
STARTCHAR uni0146
ENCODING 326
SWIDTH 569 0
DWIDTH 14 0
BBX 10 17 2 -5
BITMAP
9F00
B380
C0C0
C0C0
80C0
80C0
80C0
80C0
80C0
80C0
80C0
80C0
0000
0C00
0C00
0400
0C00
ENDCHAR
STARTCHAR Ncaron
ENCODING 327
SWIDTH 691 0
DWIDTH 17 0
BBX 13 22 2 0
BITMAP
1040
1980
0F00
0200
0000
C018
E018
E018
F018
D818
D818
CC18
C618
C618
C318
C198
C198
C0D8
C058
C078
C038
C018
ENDCHAR
STARTCHAR ncaron
ENCODING 328
SWIDTH 569 0
DWIDTH 14 0
BBX 10 17 2 0
BITMAP
2100
3B00
1E00
0400
0000
9F00
B380
C0C0
C0C0
80C0
80C0
80C0
80C0
80C0
80C0
80C0
80C0
ENDCHAR
STARTCHAR Eng
ENCODING 330
SWIDTH 691 0
DWIDTH 17 0
BBX 13 22 2 -5
BITMAP
C018
E018
E018
F018
D818
D818
CC18
C618
C618
C318
C198
C198
C0D8
C058
C078
C038
C018
0018
0018
0018
0018
00F0
ENDCHAR
STARTCHAR eng
ENCODING 331
SWIDTH 569 0
DWIDTH 14 0
BBX 10 17 2 -5
BITMAP
9F00
B380
C0C0
C0C0
80C0
80C0
80C0
80C0
80C0
80C0
80C0
80C0
00C0
00C0
00C0
00C0
0380
ENDCHAR
STARTCHAR Omacron
ENCODING 332
SWIDTH 760 0
DWIDTH 18 0
BBX 16 21 1 0
BITMAP
0FF0
0FF0
0000
0000
07E0
1E78
300C
6006
6003
C003
C003
C001
C001
C001
C003
C003
4003
6006
300C
1C38
0FF0
ENDCHAR
STARTCHAR omacron
ENCODING 333
SWIDTH 576 0
DWIDTH 14 0
BBX 12 16 1 0
BITMAP
3FC0
3FC0
0000
0000
1F80
39C0
6060
C030
C030
C030
C030
C030
C030
6060
70C0
1F80
ENDCHAR
STARTCHAR Obreve
ENCODING 334
SWIDTH 760 0
DWIDTH 18 0
BBX 16 22 1 0
BITMAP
0420
0420
07E0
01C0
0000
07E0
1E78
300C
6006
6003
C003
C003
C001
C001
C001
C003
C003
4003
6006
300C
1C38
0FF0
ENDCHAR
STARTCHAR obreve
ENCODING 335
SWIDTH 576 0
DWIDTH 14 0
BBX 12 17 1 0
BITMAP
1080
1980
0F00
0000
0000
1F80
39C0
6060
C030
C030
C030
C030
C030
C030
6060
70C0
1F80
ENDCHAR
STARTCHAR Ohungarumlaut
ENCODING 336
SWIDTH 760 0
DWIDTH 18 0
BBX 16 21 1 0
BITMAP
01B0
0360
0340
0000
07E0
1E78
300C
6006
6003
C003
C003
C001
C001
C001
C003
C003
4003
6006
300C
1C38
0FF0
ENDCHAR
STARTCHAR ohungarumlaut
ENCODING 337
SWIDTH 576 0
DWIDTH 14 0
BBX 12 17 1 0
BITMAP
06C0
0D80
0D80
1B00
0000
1F80
39C0
6060
C030
C030
C030
C030
C030
C030
6060
70C0
1F80
ENDCHAR
STARTCHAR OE
ENCODING 338
SWIDTH 1059 0
DWIDTH 25 0
BBX 23 17 1 0
BITMAP
07E3FE
1E73FE
301B00
600F00
600700
C00300
C00300
C00300
C003FE
C00300
C00300
C00300
400700
600700
300F00
1C3B00
0FE3FE
ENDCHAR
STARTCHAR oe
ENCODING 339
SWIDTH 960 0
DWIDTH 23 0
BBX 21 12 1 0
BITMAP
1F07C0
31DC60
605030
C07018
C02018
C03FF8
C02000
C03000
C07018
605030
71DC60
1F8FC0
ENDCHAR
STARTCHAR Racute
ENCODING 340
SWIDTH 640 0
DWIDTH 15 0
BBX 12 23 2 0
BITMAP
0180
0300
0200
0400
0C00
0000
FF80
FFC0
C060
C030
C030
C030
C030
C060
C1E0
FFC0
C060
C030
C030
C030
C030
C030
C030
ENDCHAR
STARTCHAR racute
ENCODING 341
SWIDTH 381 0
DWIDTH 9 0
BBX 7 18 2 0
BITMAP
06
0C
08
18
10
00
BC
BC
C0
C0
80
80
80
80
80
80
80
80
ENDCHAR
STARTCHAR uni0156
ENCODING 342
SWIDTH 640 0
DWIDTH 15 0
BBX 12 23 2 -6
BITMAP
FF80
FFC0
C060
C030
C030
C030
C030
C060
C1E0
FFC0
C060
C030
C030
C030
C030
C030
C030
0000
0600
0600
0200
0200
0400
ENDCHAR
STARTCHAR uni0157
ENCODING 343
SWIDTH 381 0
DWIDTH 9 0
BBX 7 17 1 -5
BITMAP
5E
5E
60
60
40
40
40
40
40
40
40
40
00
E0
E0
60
C0
ENDCHAR
STARTCHAR Rcaron
ENCODING 344
SWIDTH 640 0
DWIDTH 15 0
BBX 12 22 2 0
BITMAP
4100
7300
1E00
0800
0000
FF80
FFC0
C060
C030
C030
C030
C030
C060
C1E0
FFC0
C060
C030
C030
C030
C030
C030
C030
ENDCHAR
STARTCHAR rcaron
ENCODING 345
SWIDTH 381 0
DWIDTH 9 0
BBX 6 17 2 0
BITMAP
84
CC
78
10
00
BC
BC
C0
C0
80
80
80
80
80
80
80
80
ENDCHAR
STARTCHAR Sacute
ENCODING 346
SWIDTH 607 0
DWIDTH 15 0
BBX 12 23 1 0
BITMAP
00C0
00C0
0180
0100
0300
0000
1F80
3DE0
6060
4030
4030
4000
6000
3C00
1FC0
00E0
0030
0010
C010
C010
6030
7860
1FC0
ENDCHAR
STARTCHAR sacute
ENCODING 347
SWIDTH 495 0
DWIDTH 12 0
BBX 10 18 1 0
BITMAP
0180
0300
0200
0600
0400
0000
3F00
7380
4180
4000
6000
7E00
1F80
0180
C0C0
C0C0
6180
3F00
ENDCHAR
STARTCHAR Scedilla
ENCODING 350
SWIDTH 607 0
DWIDTH 15 0
BBX 12 23 1 -6
BITMAP
1F80
3DE0
6060
4030
4030
4000
6000
3C00
1FC0
00E0
0030
0010
C010
C010
6030
7860
1FC0
0200
0200
0780
00C0
0080
0F80
ENDCHAR
STARTCHAR scedilla
ENCODING 351
SWIDTH 495 0
DWIDTH 12 0
BBX 10 18 1 -6
BITMAP
3F00
7380
4180
4000
6000
7E00
1F80
0180
C0C0
C0C0
6180
3F00
0800
0800
1E00
0300
0300
1E00
ENDCHAR
STARTCHAR Scaron
ENCODING 352
SWIDTH 607 0
DWIDTH 15 0
BBX 12 22 1 0
BITMAP
1040
1DC0
0F80
0200
0000
1F80
3DE0
6060
4030
4030
4000
6000
3C00
1FC0
00E0
0030
0010
C010
C010
6030
7860
1FC0
ENDCHAR
STARTCHAR scaron
ENCODING 353
SWIDTH 495 0
DWIDTH 12 0
BBX 10 17 1 0
BITMAP
2100
3300
1E00
0400
0000
3F00
7380
4180
4000
6000
7E00
1F80
0180
C0C0
C0C0
6180
3F00
ENDCHAR
STARTCHAR uni0162
ENCODING 354
SWIDTH 587 0
DWIDTH 14 0
BBX 12 23 1 -6
BITMAP
FFF0
FFF0
0600
0600
0600
0600
0600
0600
0600
0600
0600
0600
0600
0600
0600
0600
0600
0400
0400
0F00
0180
0180
0F00
ENDCHAR
STARTCHAR uni0163
ENCODING 355
SWIDTH 355 0
DWIDTH 9 0
BBX 8 21 0 -6
BITMAP
30
30
30
FF
FF
30
30
30
30
30
30
30
30
18
1E
08
08
1E
03
03
3E
ENDCHAR
STARTCHAR Tcaron
ENCODING 356
SWIDTH 587 0
DWIDTH 14 0
BBX 12 22 1 0
BITMAP
1080
1980
0F00
0200
0000
FFF0
FFF0
0600
0600
0600
0600
0600
0600
0600
0600
0600
0600
0600
0600
0600
0600
0600
ENDCHAR
STARTCHAR tcaron
ENCODING 357
SWIDTH 355 0
DWIDTH 9 0
BBX 8 19 0 0
BITMAP
03
03
02
02
32
30
30
FF
FF
30
30
30
30
30
30
30
30
18
1E
ENDCHAR
STARTCHAR Utilde
ENCODING 360
SWIDTH 634 0
DWIDTH 15 0
BBX 12 21 2 0
BITMAP
1980
3F00
2700
0000
8030
8030
8030
8030
8030
8030
8030
8030
8030
8030
8030
8030
8030
C020
C060
71C0
3F80
ENDCHAR
STARTCHAR utilde
ENCODING 361
SWIDTH 538 0
DWIDTH 13 0
BBX 9 16 2 0
BITMAP
3B00
7E00
4600
0000
8080
8080
8080
8080
8080
8080
8080
8080
8180
C180
E280
7C80
ENDCHAR
STARTCHAR Umacron
ENCODING 362
SWIDTH 634 0
DWIDTH 15 0
BBX 12 21 2 0
BITMAP
3F80
3F80
0000
0000
8030
8030
8030
8030
8030
8030
8030
8030
8030
8030
8030
8030
8030
C020
C060
71C0
3F80
ENDCHAR
STARTCHAR umacron
ENCODING 363
SWIDTH 538 0
DWIDTH 13 0
BBX 9 16 2 0
BITMAP
7F00
7F00
0000
0000
8080
8080
8080
8080
8080
8080
8080
8080
8180
C180
E280
7C80
ENDCHAR
STARTCHAR Ubreve
ENCODING 364
SWIDTH 634 0
DWIDTH 15 0
BBX 12 22 2 0
BITMAP
3080
3180
1F00
0E00
0000
8030
8030
8030
8030
8030
8030
8030
8030
8030
8030
8030
8030
8030
C020
C060
71C0
3F80
ENDCHAR
STARTCHAR ubreve
ENCODING 365
SWIDTH 538 0
DWIDTH 13 0
BBX 9 17 2 0
BITMAP
6300
2300
3E00
0000
0000
8080
8080
8080
8080
8080
8080
8080
8080
8180
C180
E280
7C80
ENDCHAR
STARTCHAR Uring
ENCODING 366
SWIDTH 634 0
DWIDTH 15 0
BBX 12 23 2 0
BITMAP
0E00
1B00
1900
1F00
0600
0000
8030
8030
8030
8030
8030
8030
8030
8030
8030
8030
8030
8030
8030
C020
C060
71C0
3F80
ENDCHAR
STARTCHAR uring
ENCODING 367
SWIDTH 538 0
DWIDTH 13 0
BBX 9 18 2 0
BITMAP
1C00
3200
3200
1E00
0800
0000
8080
8080
8080
8080
8080
8080
8080
8080
8180
C180
E280
7C80
ENDCHAR
STARTCHAR Uhungarumlaut
ENCODING 368
SWIDTH 634 0
DWIDTH 15 0
BBX 12 21 2 0
BITMAP
0FC0
0D00
1B00
0000
8030
8030
8030
8030
8030
8030
8030
8030
8030
8030
8030
8030
8030
C020
C060
71C0
3F80
ENDCHAR
STARTCHAR uhungarumlaut
ENCODING 369
SWIDTH 538 0
DWIDTH 13 0
BBX 9 17 2 0
BITMAP
0D80
1B00
1A00
3600
0000
8080
8080
8080
8080
8080
8080
8080
8080
8180
C180
E280
7C80
ENDCHAR
STARTCHAR Uogonek
ENCODING 370
SWIDTH 634 0
DWIDTH 15 0
BBX 12 22 2 -5
BITMAP
8030
8030
8030
8030
8030
8030
8030
8030
8030
8030
8030
8030
8030
C020
C060
71C0
3F80
0C00
1800
1000
1A00
0E00
ENDCHAR
STARTCHAR uogonek
ENCODING 371
SWIDTH 538 0
DWIDTH 13 0
BBX 10 17 2 -5
BITMAP
8080
8080
8080
8080
8080
8080
8080
8080
8180
C180
E280
7C80
0300
0600
0400
0640
03C0
ENDCHAR
STARTCHAR Wcircumflex
ENCODING 372
SWIDTH 1012 0
DWIDTH 24 0
BBX 22 22 1 0
BITMAP
003000
007C00
00CC00
008200
000000
C0300C
40300C
603808
607818
606818
304C10
30CC10
30C430
108430
188620
198660
190260
090360
0F0340
0F01C0
0601C0
060180
ENDCHAR
STARTCHAR wcircumflex
ENCODING 373
SWIDTH 806 0
DWIDTH 19 0
BBX 17 17 1 0
BITMAP
00C000
03E000
063000
041000
000000
C0C180
41C180
614100
616300
236300
332200
323200
163600
161600
1C1C00
1C1C00
0C0C00
ENDCHAR
STARTCHAR Ycircumflex
ENCODING 374
SWIDTH 642 0
DWIDTH 15 0
BBX 13 22 1 0
BITMAP
0300
0F80
1CC0
1040
0000
C018
6010
6030
3020
1060
1840
08C0
0D80
0580
0700
0300
0300
0300
0300
0300
0300
0300
ENDCHAR
STARTCHAR ycircumflex
ENCODING 375
SWIDTH 590 0
DWIDTH 14 0
BBX 12 22 1 -5
BITMAP
0600
0F80
18C0
1040
0000
C030
6030
6060
3060
3040
10C0
1880
0980
0D00
0F00
0700
0600
0600
0C00
0C00
1800
F800
ENDCHAR
STARTCHAR Ydieresis
ENCODING 376
SWIDTH 642 0
DWIDTH 15 0
BBX 13 21 1 0
BITMAP
0DC0
0DC0
0000
0000
C018
6010
6030
3020
1060
1840
08C0
0D80
0580
0700
0300
0300
0300
0300
0300
0300
0300
ENDCHAR
STARTCHAR Zacute
ENCODING 377
SWIDTH 542 0
DWIDTH 13 0
BBX 11 23 1 0
BITMAP
0180
0180
0300
0200
0600
0000
FFE0
FFE0
00C0
0080
0180
0300
0300
0600
0400
0C00
1800
1800
3000
2000
6000
C000
FFE0
ENDCHAR
STARTCHAR zacute
ENCODING 378
SWIDTH 465 0
DWIDTH 11 0
BBX 9 18 1 0
BITMAP
0300
0600
0400
0C00
0800
0000
FF80
0180
0300
0600
0600
0C00
1800
3000
3000
6000
C000
FF80
ENDCHAR
STARTCHAR Zdotaccent
ENCODING 379
SWIDTH 542 0
DWIDTH 13 0
BBX 11 21 1 0
BITMAP
0E00
0E00
0000
0000
FFE0
FFE0
00C0
0080
0180
0300
0300
0600
0400
0C00
1800
1800
3000
2000
6000
C000
FFE0
ENDCHAR
STARTCHAR zdotaccent
ENCODING 380
SWIDTH 465 0
DWIDTH 11 0
BBX 9 17 1 0
BITMAP
1800
1800
1800
0000
0000
FF80
0180
0300
0600
0600
0C00
1800
3000
3000
6000
C000
FF80
ENDCHAR
STARTCHAR Zcaron
ENCODING 381
SWIDTH 542 0
DWIDTH 13 0
BBX 11 22 1 0
BITMAP
2080
3B80
1F00
0400
0000
FFE0
FFE0
00C0
0080
0180
0300
0300
0600
0400
0C00
1800
1800
3000
2000
6000
C000
FFE0
ENDCHAR
STARTCHAR zcaron
ENCODING 382
SWIDTH 465 0
DWIDTH 11 0
BBX 9 17 1 0
BITMAP
4200
6600
3C00
1000
0000
FF80
0180
0300
0600
0600
0C00
1800
3000
3000
6000
C000
FF80
ENDCHAR
STARTCHAR uni018F
ENCODING 399
SWIDTH 736 0
DWIDTH 18 0
BBX 16 17 1 0
BITMAP
07E0
1EF8
301C
600C
6006
0006
0002
0003
FFFF
FFFF
C003
C002
4006
6006
300C
1C38
0FE0
ENDCHAR
STARTCHAR florin
ENCODING 402
SWIDTH 323 0
DWIDTH 8 0
BBX 9 22 -1 -4
BITMAP
0380
0600
0C00
0C00
0C00
3F80
0800
0800
1800
1800
1800
1800
1800
1800
1000
1000
1000
3000
3000
3000
3000
E000
ENDCHAR
STARTCHAR uni01CD
ENCODING 461
SWIDTH 674 0
DWIDTH 16 0
BBX 14 22 1 0
BITMAP
0840
0CC0
0780
0100
0000
0300
0300
0780
0780
04C0
0CC0
0C40
0860
1860
1820
3030
3FF0
3FF0
6018
6018
400C
C00C
ENDCHAR
STARTCHAR uni01CE
ENCODING 462
SWIDTH 555 0
DWIDTH 13 0
BBX 11 17 1 0
BITMAP
2100
3300
1E00
0400
0000
3F00
7180
C0C0
C0C0
00C0
3FC0
60C0
C0C0
C0C0
C1C0
E360
7E60
ENDCHAR
STARTCHAR AEacute
ENCODING 508
SWIDTH 904 0
DWIDTH 22 0
BBX 20 23 1 0
BITMAP
000300
000600
000400
000C00
000800
000000
003FF0
007FF0
00D000
00D000
019000
019000
031000
021000
061FE0
0C1000
0C1000
181000
1FF000
301000
601000
601000
C01FF0
ENDCHAR
STARTCHAR aeacute
ENCODING 509
SWIDTH 900 0
DWIDTH 22 0
BBX 19 18 1 0
BITMAP
000C00
001800
003000
002000
006000
000000
3F1F80
73B9C0
60E060
C0C060
00C020
3FFFE0
60C000
C0C000
C0C060
C1E060
E338C0
7E1F80
ENDCHAR
STARTCHAR uni0218
ENCODING 536
SWIDTH 607 0
DWIDTH 15 0
BBX 12 23 1 -6
BITMAP
1F80
3DE0
6060
4030
4030
4000
6000
3C00
1FC0
00E0
0030
0010
C010
C010
6030
7860
1FC0
0000
0300
0300
0100
0100
0200
ENDCHAR
STARTCHAR uni0219
ENCODING 537
SWIDTH 495 0
DWIDTH 12 0
BBX 10 17 1 -5
BITMAP
3F00
7380
4180
4000
6000
7E00
1F80
0180
C0C0
C0C0
6180
3F00
0000
0C00
0C00
0400
0C00
ENDCHAR
STARTCHAR uni021A
ENCODING 538
SWIDTH 587 0
DWIDTH 14 0
BBX 12 23 1 -6
BITMAP
FFF0
FFF0
0600
0600
0600
0600
0600
0600
0600
0600
0600
0600
0600
0600
0600
0600
0600
0000
0600
0600
0200
0200
0400
ENDCHAR
STARTCHAR uni021B
ENCODING 539
SWIDTH 355 0
DWIDTH 9 0
BBX 8 20 0 -5
BITMAP
30
30
30
FF
FF
30
30
30
30
30
30
30
30
18
1E
00
0C
0C
04
0C
ENDCHAR
STARTCHAR uni0237
ENCODING 567
SWIDTH 244 0
DWIDTH 6 0
BBX 4 17 0 -5
BITMAP
10
10
10
10
10
10
10
10
10
10
10
10
10
10
10
10
F0
ENDCHAR
STARTCHAR uni0259
ENCODING 601
SWIDTH 559 0
DWIDTH 13 0
BBX 12 12 1 0
BITMAP
1F80
71C0
6060
C060
0020
FFF0
FFF0
C020
C020
4060
71C0
1F80
ENDCHAR
STARTCHAR circumflex
ENCODING 710
SWIDTH 400 0
DWIDTH 10 0
BBX 6 4 2 13
BITMAP
30
F8
CC
84
ENDCHAR
STARTCHAR caron
ENCODING 711
SWIDTH 400 0
DWIDTH 10 0
BBX 6 4 2 13
BITMAP
84
DC
78
20
ENDCHAR
STARTCHAR breve
ENCODING 728
SWIDTH 400 0
DWIDTH 10 0
BBX 6 3 2 14
BITMAP
84
CC
F8
ENDCHAR
STARTCHAR dotaccent
ENCODING 729
SWIDTH 400 0
DWIDTH 10 0
BBX 2 3 5 14
BITMAP
C0
C0
C0
ENDCHAR
STARTCHAR ring
ENCODING 730
SWIDTH 400 0
DWIDTH 10 0
BBX 5 5 2 13
BITMAP
78
C8
C8
78
20
ENDCHAR
STARTCHAR ogonek
ENCODING 731
SWIDTH 400 0
DWIDTH 10 0
BBX 4 6 3 -5
BITMAP
10
60
80
80
D0
70
ENDCHAR
STARTCHAR tilde
ENCODING 732
SWIDTH 400 0
DWIDTH 10 0
BBX 7 3 1 13
BITMAP
72
7E
CC
ENDCHAR
STARTCHAR hungarumlaut
ENCODING 733
SWIDTH 400 0
DWIDTH 10 0
BBX 6 4 2 13
BITMAP
6C
68
D8
B0
ENDCHAR
STARTCHAR gravecomb
ENCODING 768
SWIDTH 0 0
DWIDTH 0 0
BBX 4 5 -4 13
BITMAP
C0
60
20
30
10
ENDCHAR
STARTCHAR acutecomb
ENCODING 769
SWIDTH 0 0
DWIDTH 0 0
BBX 4 5 0 13
BITMAP
30
60
40
C0
80
ENDCHAR
STARTCHAR uni0302
ENCODING 770
SWIDTH 0 0
DWIDTH 0 0
BBX 6 4 -3 13
BITMAP
30
FC
CC
84
ENDCHAR
STARTCHAR tildecomb
ENCODING 771
SWIDTH 0 0
DWIDTH 0 0
BBX 7 3 -4 13
BITMAP
72
7E
CC
ENDCHAR
STARTCHAR uni0304
ENCODING 772
SWIDTH 0 0
DWIDTH 0 0
BBX 8 2 -4 14
BITMAP
FF
FF
ENDCHAR
STARTCHAR uni0306
ENCODING 774
SWIDTH 0 0
DWIDTH 0 0
BBX 6 3 -3 14
BITMAP
84
CC
78
ENDCHAR
STARTCHAR uni0307
ENCODING 775
SWIDTH 0 0
DWIDTH 0 0
BBX 2 3 0 14
BITMAP
C0
C0
C0
ENDCHAR
STARTCHAR uni0308
ENCODING 776
SWIDTH 0 0
DWIDTH 0 0
BBX 6 3 -3 14
BITMAP
CC
CC
CC
ENDCHAR
STARTCHAR uni030A
ENCODING 778
SWIDTH 0 0
DWIDTH 0 0
BBX 4 5 -2 13
BITMAP
F0
90
90
F0
40
ENDCHAR
STARTCHAR uni030B
ENCODING 779
SWIDTH 0 0
DWIDTH 0 0
BBX 6 4 -2 13
BITMAP
6C
68
D8
B0
ENDCHAR
STARTCHAR uni030C
ENCODING 780
SWIDTH 0 0
DWIDTH 0 0
BBX 6 4 -3 13
BITMAP
84
CC
78
20
ENDCHAR
STARTCHAR uni0312
ENCODING 786
SWIDTH 0 0
DWIDTH 0 0
BBX 2 5 0 13
BITMAP
40
80
80
C0
C0
ENDCHAR
STARTCHAR uni0326
ENCODING 806
SWIDTH 0 0
DWIDTH 0 0
BBX 2 4 -1 -2
BITMAP
C0
C0
40
C0
ENDCHAR
STARTCHAR uni0327
ENCODING 807
SWIDTH 0 0
DWIDTH 0 0
BBX 6 6 -3 -6
BITMAP
30
20
78
0C
0C
F8
ENDCHAR
STARTCHAR uni0328
ENCODING 808
SWIDTH 0 0
DWIDTH 0 0
BBX 4 6 -2 -5
BITMAP
10
60
C0
80
D0
70
ENDCHAR
STARTCHAR pi
ENCODING 960
SWIDTH 628 0
DWIDTH 15 0
BBX 13 12 1 0
BITMAP
FFF8
3060
3060
3060
3060
3060
3060
3060
3060
3060
3060
3060
ENDCHAR
STARTCHAR Wgrave
ENCODING 7808
SWIDTH 1012 0
DWIDTH 24 0
BBX 22 23 1 0
BITMAP
018000
00C000
004000
006000
003000
000000
C0300C
40300C
603808
607818
606818
304C10
30CC10
30C430
108430
188620
198660
190260
090360
0F0340
0F01C0
0601C0
060180
ENDCHAR
STARTCHAR wgrave
ENCODING 7809
SWIDTH 806 0
DWIDTH 19 0
BBX 17 18 1 0
BITMAP
060000
020000
030000
010000
008000
000000
C0C180
41C180
614100
616300
236300
332200
323200
163600
161600
1C1C00
1C1C00
0C0C00
ENDCHAR
STARTCHAR Wacute
ENCODING 7810
SWIDTH 1012 0
DWIDTH 24 0
BBX 22 23 1 0
BITMAP
000600
000400
000C00
001800
001000
000000
C0300C
40300C
603808
607818
606818
304C10
30CC10
30C430
108430
188620
198660
190260
090360
0F0340
0F01C0
0601C0
060180
ENDCHAR
STARTCHAR wacute
ENCODING 7811
SWIDTH 806 0
DWIDTH 19 0
BBX 17 18 1 0
BITMAP
001000
003000
006000
004000
00C000
000000
C0C180
41C180
614100
616300
236300
332200
323200
163600
161600
1C1C00
1C1C00
0C0C00
ENDCHAR
STARTCHAR Wdieresis
ENCODING 7812
SWIDTH 1012 0
DWIDTH 24 0
BBX 22 21 1 0
BITMAP
00EC00
00EC00
000000
000000
C0300C
40300C
603808
607818
606818
304C10
30CC10
30C430
108430
188620
198660
190260
090360
0F0340
0F01C0
0601C0
060180
ENDCHAR
STARTCHAR wdieresis
ENCODING 7813
SWIDTH 806 0
DWIDTH 19 0
BBX 17 17 1 0
BITMAP
037000
037000
037000
000000
000000
C0C180
41C180
614100
616300
236300
332200
323200
163600
161600
1C1C00
1C1C00
0C0C00
ENDCHAR
STARTCHAR uni1E9E
ENCODING 7838
SWIDTH 643 0
DWIDTH 15 0
BBX 12 17 2 0
BITMAP
FFE0
FFC0
C0C0
C080
C180
C300
C200
C780
C3E0
C070
C030
C030
C030
C030
C030
C1E0
DF80
ENDCHAR
STARTCHAR uni1EBC
ENCODING 7868
SWIDTH 539 0
DWIDTH 13 0
BBX 10 21 2 0
BITMAP
3900
3F00
6600
0000
FFC0
FFC0
8000
8000
8000
8000
8000
8000
FF80
8000
8000
8000
8000
8000
8000
8000
FFC0
ENDCHAR
STARTCHAR uni1EBD
ENCODING 7869
SWIDTH 557 0
DWIDTH 13 0
BBX 11 16 1 0
BITMAP
1D80
3F80
3300
0000
1F00
79C0
6040
C060
C060
FFE0
C000
C000
C060
6040
71C0
1F80
ENDCHAR
STARTCHAR Ygrave
ENCODING 7922
SWIDTH 642 0
DWIDTH 15 0
BBX 13 23 1 0
BITMAP
1800
0800
0C00
0400
0200
0000
C018
6010
6030
3020
1060
1840
08C0
0D80
0580
0700
0300
0300
0300
0300
0300
0300
0300
ENDCHAR
STARTCHAR ygrave
ENCODING 7923
SWIDTH 590 0
DWIDTH 14 0
BBX 12 23 1 -5
BITMAP
3000
1800
0C00
0400
0600
0000
C030
6030
6060
3060
3040
10C0
1880
0980
0D00
0F00
0700
0600
0600
0C00
0C00
1800
F800
ENDCHAR
STARTCHAR uni1EF8
ENCODING 7928
SWIDTH 642 0
DWIDTH 15 0
BBX 13 21 1 0
BITMAP
0EC0
1FC0
1180
0000
C018
6010
6030
3020
1060
1840
08C0
0D80
0580
0700
0300
0300
0300
0300
0300
0300
0300
ENDCHAR
STARTCHAR uni1EF9
ENCODING 7929
SWIDTH 590 0
DWIDTH 14 0
BBX 12 21 1 -5
BITMAP
1C80
1F80
1100
0000
C030
6030
6060
3060
3040
10C0
1880
0980
0D00
0F00
0700
0600
0600
0C00
0C00
1800
F800
ENDCHAR
STARTCHAR uni2009
ENCODING 8201
SWIDTH 150 0
DWIDTH 4 0
BBX 1 1 0 0
BITMAP
00
ENDCHAR
STARTCHAR endash
ENCODING 8211
SWIDTH 691 0
DWIDTH 17 0
BBX 13 2 2 6
BITMAP
FFF8
FFF8
ENDCHAR
STARTCHAR emdash
ENCODING 8212
SWIDTH 855 0
DWIDTH 21 0
BBX 17 2 2 6
BITMAP
FFFF80
FFFF80
ENDCHAR
STARTCHAR quoteleft
ENCODING 8216
SWIDTH 266 0
DWIDTH 6 0
BBX 4 5 1 12
BITMAP
30
20
20
60
E0
ENDCHAR
STARTCHAR quoteright
ENCODING 8217
SWIDTH 266 0
DWIDTH 6 0
BBX 4 5 1 12
BITMAP
30
60
60
40
C0
ENDCHAR
STARTCHAR quotesinglbase
ENCODING 8218
SWIDTH 235 0
DWIDTH 6 0
BBX 3 5 1 -3
BITMAP
60
60
40
C0
80
ENDCHAR
STARTCHAR quotedblleft
ENCODING 8220
SWIDTH 438 0
DWIDTH 11 0
BBX 8 5 1 12
BITMAP
31
23
22
66
E6
ENDCHAR
STARTCHAR quotedblright
ENCODING 8221
SWIDTH 438 0
DWIDTH 11 0
BBX 8 5 1 12
BITMAP
33
63
62
46
C4
ENDCHAR
STARTCHAR quotedblbase
ENCODING 8222
SWIDTH 437 0
DWIDTH 10 0
BBX 7 5 2 -3
BITMAP
66
6C
CC
C8
98
ENDCHAR
STARTCHAR dagger
ENCODING 8224
SWIDTH 616 0
DWIDTH 15 0
BBX 10 25 2 -6
BITMAP
0C00
0C00
0C00
0C00
0C00
0C00
FFC0
0C00
0C00
0C00
0C00
0C00
0C00
0C00
0C00
0C00
0C00
0C00
0C00
0C00
0C00
0C00
0C00
0C00
0C00
ENDCHAR
STARTCHAR daggerdbl
ENCODING 8225
SWIDTH 616 0
DWIDTH 15 0
BBX 11 25 2 -6
BITMAP
0400
0400
0400
0400
0400
0400
FFE0
0400
0400
0400
0400
0400
0400
0400
0400
0400
0400
0400
FFE0
FFE0
0400
0400
0400
0400
0400
ENDCHAR
STARTCHAR bullet
ENCODING 8226
SWIDTH 351 0
DWIDTH 8 0
BBX 6 6 1 5
BITMAP
30
7C
FC
FC
7C
30
ENDCHAR
STARTCHAR ellipsis
ENCODING 8230
SWIDTH 565 0
DWIDTH 14 0
BBX 11 2 1 0
BITMAP
E660
E660
ENDCHAR
STARTCHAR perthousand
ENCODING 8240
SWIDTH 1222 0
DWIDTH 29 0
BBX 26 17 2 0
BITMAP
780C0000
EC080000
86180000
82300000
82300000
C6600000
FC400000
38C00000
01800000
01840400
031F1F80
02319080
0621B0C0
0421B0C0
0C21B0C0
18331980
301F0F00
ENDCHAR
STARTCHAR guilsinglleft
ENCODING 8249
SWIDTH 280 0
DWIDTH 7 0
BBX 5 8 1 3
BITMAP
38
30
60
C0
C0
60
30
18
ENDCHAR
STARTCHAR guilsinglright
ENCODING 8250
SWIDTH 280 0
DWIDTH 7 0
BBX 5 8 1 3
BITMAP
C0
60
30
18
10
30
60
C0
ENDCHAR
STARTCHAR fraction
ENCODING 8260
SWIDTH 550 0
DWIDTH 13 0
BBX 11 17 1 0
BITMAP
0060
0060
00C0
0080
0180
0300
0300
0600
0400
0C00
0800
1800
3000
3000
6000
4000
C000
ENDCHAR
STARTCHAR uni2074
ENCODING 8308
SWIDTH 343 0
DWIDTH 8 0
BBX 6 9 1 8
BITMAP
08
18
28
68
48
88
FC
08
08
ENDCHAR
STARTCHAR Euro
ENCODING 8364
SWIDTH 650 0
DWIDTH 16 0
BBX 15 17 0 0
BITMAP
03F0
07B8
0C0C
0804
1802
1800
FFE0
1000
1000
1000
FFE0
1800
1800
1806
0C0C
0718
03F0
ENDCHAR
STARTCHAR uni20B9
ENCODING 8377
SWIDTH 650 0
DWIDTH 16 0
BBX 13 17 2 0
BITMAP
FFF8
0700
0180
00C0
FFF8
FFF8
00C0
0180
FF00
FC00
6000
3000
1800
0C00
0700
0180
00E0
ENDCHAR
STARTCHAR uni20BA
ENCODING 8378
SWIDTH 650 0
DWIDTH 16 0
BBX 13 17 1 0
BITMAP
1000
1000
1000
1000
1080
1300
1E00
3800
F100
9708
1C18
7018
D018
1030
1030
11E0
1F80
ENDCHAR
STARTCHAR uni20BD
ENCODING 8381
SWIDTH 650 0
DWIDTH 16 0
BBX 14 17 1 0
BITMAP
1FC0
1FF0
1018
1008
100C
100C
1008
1018
FFF0
FFC0
1000
1000
FFC0
FFC0
1000
1000
1000
ENDCHAR
STARTCHAR trademark
ENCODING 8482
SWIDTH 790 0
DWIDTH 19 0
BBX 17 9 1 8
BITMAP
FCC180
30C180
30C380
30A280
30A680
30B480
309480
309880
308880
ENDCHAR
STARTCHAR uni2126
ENCODING 8486
SWIDTH 783 0
DWIDTH 19 0
BBX 17 17 1 0
BITMAP
07F000
1F7800
380E00
600600
600300
C00100
C00180
C00180
C00180
C00180
C00180
C00100
600300
600600
300C00
0E3800
FE3F00
ENDCHAR
STARTCHAR estimated
ENCODING 8494
SWIDTH 743 0
DWIDTH 18 0
BBX 16 17 1 0
BITMAP
03C0
1FF0
301C
600E
6006
E006
E007
E007
FFFF
E000
E000
E000
6000
6002
300C
1C18
0FE0
ENDCHAR
STARTCHAR arrowleft
ENCODING 8592
SWIDTH 675 0
DWIDTH 16 0
BBX 13 11 2 3
BITMAP
0400
0C00
1800
3000
6000
FFF8
6000
3000
1800
0C00
0400
ENDCHAR
STARTCHAR arrowup
ENCODING 8593
SWIDTH 590 0
DWIDTH 14 0
BBX 10 13 2 2
BITMAP
0400
0C00
1E00
3F00
6D80
CCC0
8C40
0C00
0C00
0C00
0C00
0C00
0C00
ENDCHAR
STARTCHAR arrowright
ENCODING 8594
SWIDTH 675 0
DWIDTH 16 0
BBX 13 11 2 3
BITMAP
0100
0300
0180
00C0
0060
FFF8
0030
0060
00C0
0380
0100
ENDCHAR
STARTCHAR arrowdown
ENCODING 8595
SWIDTH 590 0
DWIDTH 14 0
BBX 10 13 2 2
BITMAP
0C00
0C00
0C00
0C00
0C00
0C00
0C00
CC40
6CC0
3D80
1F00
0E00
0400
ENDCHAR
STARTCHAR arrowboth
ENCODING 8596
SWIDTH 859 0
DWIDTH 21 0
BBX 17 11 2 3
BITMAP
041000
0C1800
180C00
300600
600300
FFFF80
600300
300600
180C00
0C1800
041000
ENDCHAR
STARTCHAR arrowupdn
ENCODING 8597
SWIDTH 590 0
DWIDTH 14 0
BBX 10 15 2 1
BITMAP
0C00
1E00
3F00
6D80
CCC0
8C40
0C00
0C00
0C00
8C40
CCC0
6D80
3F00
1E00
0C00
ENDCHAR
STARTCHAR uni2196
ENCODING 8598
SWIDTH 539 0
DWIDTH 13 0
BBX 9 9 2 4
BITMAP
FE00
C000
E000
B000
9800
8C00
8600
0300
0180
ENDCHAR
STARTCHAR uni2197
ENCODING 8599
SWIDTH 539 0
DWIDTH 13 0
BBX 9 9 2 4
BITMAP
3F80
0180
0380
0680
0C80
1880
3080
6000
C000
ENDCHAR
STARTCHAR uni2198
ENCODING 8600
SWIDTH 539 0
DWIDTH 13 0
BBX 9 9 2 4
BITMAP
8000
C000
6080
3080
1880
0C80
0680
0380
3F80
ENDCHAR
STARTCHAR uni2199
ENCODING 8601
SWIDTH 539 0
DWIDTH 13 0
BBX 9 9 2 4
BITMAP
0080
0180
8300
8600
8C00
9800
B000
E000
FE00
ENDCHAR
STARTCHAR partialdiff
ENCODING 8706
SWIDTH 574 0
DWIDTH 14 0
BBX 12 18 1 0
BITMAP
0F00
09C0
0040
0060
0020
0FB0
18F0
3070
6030
6030
C030
C020
C060
C060
C040
60C0
7380
3F00
ENDCHAR
STARTCHAR uni2206
ENCODING 8710
SWIDTH 698 0
DWIDTH 17 0
BBX 15 17 1 0
BITMAP
0300
0380
0380
0680
04C0
0C40
0860
1820
1830
3030
3018
2018
6008
400C
C004
C006
FFFE
ENDCHAR
STARTCHAR product
ENCODING 8719
SWIDTH 727 0
DWIDTH 17 0
BBX 15 17 1 0
BITMAP
FFFE
FFFE
300C
300C
300C
300C
300C
300C
300C
300C
300C
300C
300C
300C
300C
300C
300C
ENDCHAR
STARTCHAR summation
ENCODING 8721
SWIDTH 472 0
DWIDTH 11 0
BBX 9 18 1 -1
BITMAP
FF80
FF80
6000
6000
3000
1800
0C00
0600
0300
0300
0600
0600
0C00
1800
3000
6000
C000
FF80
ENDCHAR
STARTCHAR minus
ENCODING 8722
SWIDTH 590 0
DWIDTH 14 0
BBX 11 1 2 8
BITMAP
FFE0
ENDCHAR
STARTCHAR uni2215
ENCODING 8725
SWIDTH 590 0
DWIDTH 14 0
BBX 10 20 2 -2
BITMAP
00C0
0080
0180
0100
0300
0300
0200
0600
0400
0C00
0C00
0800
1800
1800
3000
3000
2000
6000
6000
C000
ENDCHAR
STARTCHAR radical
ENCODING 8730
SWIDTH 690 0
DWIDTH 17 0
BBX 18 22 0 -1
BITMAP
0000C0
000080
000100
000100
000200
000200
000400
000400
000800
001800
001000
003000
002000
006000
004000
10C000
708000
D98000
190000
0E0000
0E0000
040000
ENDCHAR
STARTCHAR infinity
ENCODING 8734
SWIDTH 706 0
DWIDTH 17 0
BBX 15 7 1 3
BITMAP
7C7C
C6C6
C386
C386
C286
7C7C
1010
ENDCHAR
STARTCHAR integral
ENCODING 8747
SWIDTH 275 0
DWIDTH 7 0
BBX 8 26 -1 -4
BITMAP
03
07
06
04
04
0C
0C
0C
0C
0C
0C
08
08
08
18
18
18
18
18
18
10
10
10
30
30
E0
ENDCHAR
STARTCHAR approxequal
ENCODING 8776
SWIDTH 590 0
DWIDTH 14 0
BBX 10 8 2 3
BITMAP
3040
7CC0
8780
0000
0000
7840
FEC0
8780
ENDCHAR
STARTCHAR notequal
ENCODING 8800
SWIDTH 590 0
DWIDTH 14 0
BBX 11 9 1 4
BITMAP
0180
0300
FFE0
0600
0600
0C00
FFE0
1800
3000
ENDCHAR
STARTCHAR lessequal
ENCODING 8804
SWIDTH 590 0
DWIDTH 14 0
BBX 11 12 2 2
BITMAP
0040
03C0
1F00
7800
E000
7C00
0F80
01C0
0040
0000
FFE0
FFE0
ENDCHAR
STARTCHAR greaterequal
ENCODING 8805
SWIDTH 590 0
DWIDTH 14 0
BBX 11 12 2 2
BITMAP
8000
F000
1E00
07C0
01E0
0780
3C00
E000
8000
0000
FFE0
FFE0
ENDCHAR
STARTCHAR lozenge
ENCODING 9674
SWIDTH 549 0
DWIDTH 13 0
BBX 11 11 1 3
BITMAP
0400
0E00
1B00
3180
60C0
C060
6040
3080
1900
0E00
0400
ENDCHAR
STARTCHAR fi
ENCODING 64257
SWIDTH 551 0
DWIDTH 13 0
BBX 11 17 1 0
BITMAP
3CE0
20E0
60E0
6000
6000
FFC0
FFC0
6040
6040
6040
6040
6040
6040
6040
6040
6040
6040
ENDCHAR
STARTCHAR fl
ENCODING 64258
SWIDTH 546 0
DWIDTH 13 0
BBX 10 17 1 0
BITMAP
3C40
2040
6040
6040
6040
FC40
FC40
6040
6040
6040
6040
6040
6040
6040
6040
6040
6040
ENDCHAR
STARTCHAR .notdef
ENCODING -1
SWIDTH 640 0
DWIDTH 15 0
BBX 14 17 1 0
BITMAP
FFFC
C00C
E01C
A02C
906C
884C
848C
870C
830C
870C
8C8C
884C
906C
A03C
E01C
C00C
FFFC
ENDCHAR
STARTCHAR i.loclTRK
ENCODING -1
SWIDTH 210 0
DWIDTH 5 0
BBX 3 17 1 0
BITMAP
E0
E0
E0
00
00
40
40
40
40
40
40
40
40
40
40
40
40
ENDCHAR
STARTCHAR uni030C.alt
ENCODING -1
SWIDTH 0 0
DWIDTH 0 0
BBX 2 5 1 13
BITMAP
C0
80
80
80
80
ENDCHAR
STARTCHAR uni0308.case
ENCODING -1
SWIDTH 0 0
DWIDTH 0 0
BBX 6 2 -3 19
BITMAP
CC
CC
ENDCHAR
STARTCHAR uni0307.case
ENCODING -1
SWIDTH 0 0
DWIDTH 0 0
BBX 2 2 -1 19
BITMAP
C0
C0
ENDCHAR
STARTCHAR gravecomb.case
ENCODING -1
SWIDTH 0 0
DWIDTH 0 0
BBX 4 5 -4 18
BITMAP
C0
60
20
30
10
ENDCHAR
STARTCHAR acutecomb.case
ENCODING -1
SWIDTH 0 0
DWIDTH 0 0
BBX 4 5 0 18
BITMAP
30
60
40
C0
80
ENDCHAR
STARTCHAR uni030B.case
ENCODING -1
SWIDTH 0 0
DWIDTH 0 0
BBX 6 3 -2 18
BITMAP
6C
D8
B0
ENDCHAR
STARTCHAR uni0302.case
ENCODING -1
SWIDTH 0 0
DWIDTH 0 0
BBX 6 4 -3 18
BITMAP
30
78
CC
84
ENDCHAR
STARTCHAR uni030C.case
ENCODING -1
SWIDTH 0 0
DWIDTH 0 0
BBX 6 4 -3 18
BITMAP
84
CC
78
30
ENDCHAR
STARTCHAR uni0306.case
ENCODING -1
SWIDTH 0 0
DWIDTH 0 0
BBX 6 4 -3 18
BITMAP
84
84
FC
78
ENDCHAR
STARTCHAR uni030A.case
ENCODING -1
SWIDTH 0 0
DWIDTH 0 0
BBX 4 5 -2 18
BITMAP
F0
90
90
F0
60
ENDCHAR
STARTCHAR tildecomb.case
ENCODING -1
SWIDTH 0 0
DWIDTH 0 0
BBX 7 3 -4 18
BITMAP
72
7E
CC
ENDCHAR
STARTCHAR uni0304.case
ENCODING -1
SWIDTH 0 0
DWIDTH 0 0
BBX 7 2 0 19
BITMAP
FE
FE
ENDCHAR
STARTCHAR uni0312.case
ENCODING -1
SWIDTH 0 0
DWIDTH 0 0
BBX 2 4 -1 16
BITMAP
C0
80
C0
C0
ENDCHAR
STARTCHAR uni0326.case
ENCODING -1
SWIDTH 0 0
DWIDTH 0 0
BBX 2 5 -1 -8
BITMAP
C0
C0
40
40
80
ENDCHAR
STARTCHAR uni0327.case
ENCODING -1
SWIDTH 0 0
DWIDTH 0 0
BBX 6 6 -3 -6
BITMAP
30
20
78
0C
0C
F8
ENDCHAR
STARTCHAR uni0328.case
ENCODING -1
SWIDTH 0 0
DWIDTH 0 0
BBX 4 6 -2 -5
BITMAP
10
60
C0
80
D0
70
ENDCHAR
STARTCHAR a.ss02
ENCODING -1
SWIDTH 587 0
DWIDTH 14 0
BBX 12 12 1 0
BITMAP
1F30
71B0
6070
C070
C030
8030
8030
C030
C070
6070
71B0
1F30
ENDCHAR
STARTCHAR aacute.ss02
ENCODING -1
SWIDTH 587 0
DWIDTH 14 0
BBX 12 18 1 0
BITMAP
0180
0180
0300
0200
0600
0000
1F30
71B0
6070
C070
C030
8030
8030
C030
C070
6070
71B0
1F30
ENDCHAR
STARTCHAR abreve.ss02
ENCODING -1
SWIDTH 587 0
DWIDTH 14 0
BBX 12 17 1 0
BITMAP
3080
1180
1F00
0000
0000
1F30
71B0
6070
C070
C030
8030
8030
C030
C070
6070
71B0
1F30
ENDCHAR
STARTCHAR uni01CE.ss02
ENCODING -1
SWIDTH 587 0
DWIDTH 14 0
BBX 12 17 1 0
BITMAP
2080
3B80
0F00
0400
0000
1F30
71B0
6070
C070
C030
8030
8030
C030
C070
6070
71B0
1F30
ENDCHAR
STARTCHAR acircumflex.ss02
ENCODING -1
SWIDTH 587 0
DWIDTH 14 0
BBX 12 17 1 0
BITMAP
0600
1F00
3180
2080
0000
1F30
71B0
6070
C070
C030
8030
8030
C030
C070
6070
71B0
1F30
ENDCHAR
STARTCHAR adieresis.ss02
ENCODING -1
SWIDTH 587 0
DWIDTH 14 0
BBX 12 17 1 0
BITMAP
1B80
1B80
1B80
0000
0000
1F30
71B0
6070
C070
C030
8030
8030
C030
C070
6070
71B0
1F30
ENDCHAR
STARTCHAR agrave.ss02
ENCODING -1
SWIDTH 587 0
DWIDTH 14 0
BBX 12 18 1 0
BITMAP
3000
1000
1800
0800
0400
0000
1F30
71B0
6070
C070
C030
8030
8030
C030
C070
6070
71B0
1F30
ENDCHAR
STARTCHAR amacron.ss02
ENCODING -1
SWIDTH 587 0
DWIDTH 14 0
BBX 12 16 1 0
BITMAP
3F80
3F80
0000
0000
1F30
71B0
6070
C070
C030
8030
8030
C030
C070
6070
71B0
1F30
ENDCHAR
STARTCHAR aogonek.ss02
ENCODING -1
SWIDTH 587 0
DWIDTH 14 0
BBX 12 17 1 -5
BITMAP
1F30
71B0
6070
C070
C030
8030
8030
C030
C070
6070
71B0
1F30
00E0
0180
0180
0190
00F0
ENDCHAR
STARTCHAR aring.ss02
ENCODING -1
SWIDTH 587 0
DWIDTH 14 0
BBX 12 18 1 0
BITMAP
0E00
1900
1900
0F00
0400
0000
1F30
71B0
6070
C070
C030
8030
8030
C030
C070
6070
71B0
1F30
ENDCHAR
STARTCHAR atilde.ss02
ENCODING -1
SWIDTH 587 0
DWIDTH 14 0
BBX 12 16 1 0
BITMAP
1D80
3F00
2300
0000
1F30
71B0
6070
C070
C030
8030
8030
C030
C070
6070
71B0
1F30
ENDCHAR
STARTCHAR ae.ss02
ENCODING -1
SWIDTH 981 0
DWIDTH 24 0
BBX 21 12 1 0
BITMAP
1F37E0
71BE70
607818
C07018
C03008
803FF8
803000
C03000
C07018
607818
71FC30
1F37E0
ENDCHAR
STARTCHAR aeacute.ss02
ENCODING -1
SWIDTH 981 0
DWIDTH 24 0
BBX 21 18 1 0
BITMAP
000600
000C00
000800
001800
001000
000000
1F37E0
71BE70
607818
C07018
C03008
803FF8
803000
C03000
C07018
607818
71FC30
1F37E0
ENDCHAR
STARTCHAR three.ss03
ENCODING -1
SWIDTH 650 0
DWIDTH 16 0
BBX 13 17 1 0
BITMAP
7FF0
7FF0
0060
00C0
0380
0600
0C00
0FC0
0070
0030
0010
0018
C018
4010
6030
38E0
1FC0
ENDCHAR
STARTCHAR six.ss03
ENCODING -1
SWIDTH 650 0
DWIDTH 16 0
BBX 12 17 2 0
BITMAP
0300
0600
0C00
1800
1800
3000
7F80
70C0
C060
C030
8030
8030
8030
C030
E060
79C0
3F80
ENDCHAR
STARTCHAR nine.ss03
ENCODING -1
SWIDTH 650 0
DWIDTH 16 0
BBX 12 17 2 0
BITMAP
1F80
3FC0
6060
C060
C030
C030
C030
C020
C060
70E0
3FC0
0180
0180
0300
0600
0600
0C00
ENDCHAR
STARTCHAR periodcentered.loclCAT
ENCODING -1
SWIDTH 180 0
DWIDTH 4 0
BBX 2 3 1 7
BITMAP
40
C0
C0
ENDCHAR
STARTCHAR periodcentered.loclCAT.case
ENCODING -1
SWIDTH 180 0
DWIDTH 4 0
BBX 2 3 1 7
BITMAP
40
C0
C0
ENDCHAR
STARTCHAR uni0308.narrow
ENCODING -1
SWIDTH 0 0
DWIDTH 0 0
BBX 4 3 -2 14
BITMAP
90
90
90
ENDCHAR
STARTCHAR gravecomb.narrow
ENCODING -1
SWIDTH 0 0
DWIDTH 0 0
BBX 3 5 -3 13
BITMAP
C0
40
60
20
20
ENDCHAR
STARTCHAR acutecomb.narrow
ENCODING -1
SWIDTH 0 0
DWIDTH 0 0
BBX 3 5 0 13
BITMAP
60
40
C0
80
80
ENDCHAR
STARTCHAR uni0302.narrow
ENCODING -1
SWIDTH 0 0
DWIDTH 0 0
BBX 4 4 -2 13
BITMAP
60
F0
90
90
ENDCHAR
STARTCHAR uni0306.narrow
ENCODING -1
SWIDTH 0 0
DWIDTH 0 0
BBX 6 3 -3 14
BITMAP
CC
48
78
ENDCHAR
STARTCHAR tildecomb.narrow
ENCODING -1
SWIDTH 0 0
DWIDTH 0 0
BBX 6 3 -3 13
BITMAP
6C
78
C8
ENDCHAR
STARTCHAR uni0304.narrow
ENCODING -1
SWIDTH 0 0
DWIDTH 0 0
BBX 6 2 -3 14
BITMAP
FC
FC
ENDCHAR
STARTCHAR uni0328.narrow
ENCODING -1
SWIDTH 0 0
DWIDTH 0 0
BBX 3 6 -1 -5
BITMAP
20
20
40
40
E0
60
ENDCHAR
ENDFONT
